<svg xmlns="http://www.w3.org/2000/svg" xmlns:xlink="http://www.w3.org/1999/xlink" version="1.1" viewBox="0 0 1000 600"><defs/><g><rect fill="BLACK" stroke="none" x="0" y="0" width="1000" height="600"/><rect fill="#EEEEEE" stroke="none" x="499" y="0" width="3" height="10"/><rect fill="#EEEEEE" stroke="none" x="499" y="25" width="3" height="10"/><rect fill="#EEEEEE" stroke="none" x="499" y="50" width="3" height="10"/><rect fill="#EEEEEE" stroke="none" x="499" y="75" width="3" height="10"/><rect fill="#EEEEEE" stroke="none" x="499" y="100" width="3" height="10"/><rect fill="#EEEEEE" stroke="none" x="499" y="125" width="3" height="10"/><rect fill="#EEEEEE" stroke="none" x="499" y="150" width="3" height="10"/><rect fill="#EEEEEE" stroke="none" x="499" y="175" width="3" height="10"/><rect fill="#EEEEEE" stroke="none" x="499" y="200" width="3" height="10"/><rect fill="#EEEEEE" stroke="none" x="499" y="225" width="3" height="10"/><rect fill="#EEEEEE" stroke="none" x="499" y="250" width="3" height="10"/><rect fill="#EEEEEE" stroke="none" x="499" y="275" width="3" height="10"/><rect fill="#EEEEEE" stroke="none" x="499" y="300" width="3" height="10"/><rect fill="#EEEEEE" stroke="none" x="499" y="325" width="3" height="10"/><rect fill="#EEEEEE" stroke="none" x="499" y="350" width="3" height="10"/><rect fill="#EEEEEE" stroke="none" x="499" y="375" width="3" height="10"/><rect fill="#EEEEEE" stroke="none" x="499" y="400" width="3" height="10"/><rect fill="#EEEEEE" stroke="none" x="499" y="425" width="3" height="10"/><rect fill="#EEEEEE" stroke="none" x="499" y="450" width="3" height="10"/><rect fill="#EEEEEE" stroke="none" x="499" y="475" width="3" height="10"/><rect fill="#EEEEEE" stroke="none" x="499" y="500" width="3" height="10"/><rect fill="#EEEEEE" stroke="none" x="499" y="525" width="3" height="10"/><rect fill="#EEEEEE" stroke="none" x="499" y="550" width="3" height="10"/><rect fill="#EEEEEE" stroke="none" x="499" y="575" width="3" height="10"/><rect fill="#EEEEEE" stroke="none" x="0" y="200" width="20" height="200"/><rect fill="#EEEEEE" stroke="none" x="980" y="200" width="20" height="200"/><path fill="#EEEEEE" stroke="none" paint-order="stroke fill markers" d=" M 515 300 A 15 15 0 1 1 514.9999925000006 299.9850000025 Z"/></g></svg>