<svg width="500" height="500" viewBox="0 0 500 500" fill="none" xmlns="http://www.w3.org/2000/svg">
<path d="M288.22 117.901H211.561V264.985H288.22V117.901Z" fill="#000C33"/>
<path d="M369.826 10H131.581C122.441 10 115.032 17.4092 115.032 26.549C115.032 35.6888 122.441 43.098 131.581 43.098H369.826C378.966 43.098 386.375 35.6888 386.375 26.549C386.375 17.4092 378.966 10 369.826 10Z" fill="#000C33"/>
<path d="M169.317 43.098H136.788V152.961H169.317V43.098Z" fill="#F8BBBB"/>
<path d="M201.846 43.098H169.317V152.961H201.846V43.098Z" fill="#B86E6E"/>
<path d="M234.374 43.098H201.845V152.961H234.374V43.098Z" fill="#F8BBBB"/>
<path d="M266.903 43.098H234.374V152.961H266.903V43.098Z" fill="#B86E6E"/>
<path d="M299.432 43.098H266.903V152.961H299.432V43.098Z" fill="#F8BBBB"/>
<path d="M331.961 43.098H299.432V152.961H331.961V43.098Z" fill="#B86E6E"/>
<path d="M364.49 43.098H331.961V152.961H364.49V43.098Z" fill="#F8BBBB"/>
<path d="M249.982 461.319C239.859 461.319 231.884 455.193 225.475 450.272C222.039 447.633 218.485 444.903 216.06 444.255C213.37 443.535 208.759 444.131 204.299 444.708C196.009 445.778 186.614 446.993 178.127 442.082C169.534 437.11 165.722 427.91 162.658 420.518C160.962 416.423 159.208 412.189 157.328 410.31C155.448 408.431 151.213 406.675 147.12 404.979C139.728 401.917 130.529 398.104 125.557 389.512C120.647 381.025 121.861 371.629 122.932 363.34C123.509 358.88 124.104 354.268 123.386 351.58C122.738 349.154 120.009 345.601 117.37 342.165C112.448 335.755 106.322 327.782 106.322 317.658C106.322 307.535 112.447 299.56 117.369 293.151C120.009 289.715 122.738 286.161 123.386 283.736C124.105 281.048 123.509 276.436 122.933 271.976C121.862 263.686 120.648 254.29 125.56 245.802C130.531 237.21 139.731 233.397 147.123 230.335C151.217 228.638 155.451 226.883 157.331 225.004C159.211 223.124 160.965 218.89 162.662 214.796C165.725 207.405 169.537 198.205 178.13 193.234C186.619 188.322 196.014 189.537 204.303 190.609C208.763 191.185 213.374 191.781 216.063 191.063C218.487 190.415 222.041 187.686 225.477 185.046C231.885 180.123 239.86 173.998 249.983 173.998C260.106 173.998 268.081 180.123 274.49 185.045C277.927 187.684 281.48 190.413 283.905 191.062C286.593 191.782 291.205 191.184 295.665 190.608C303.955 189.538 313.351 188.324 321.839 193.235C330.432 198.207 334.243 207.406 337.307 214.799C339.003 218.893 340.757 223.127 342.638 225.007C344.518 226.886 348.752 228.642 352.845 230.337C360.237 233.4 369.436 237.213 374.408 245.804C379.319 254.292 378.105 263.687 377.033 271.977C376.457 276.437 375.861 281.048 376.58 283.737C377.228 286.162 379.957 289.715 382.596 293.151C387.518 299.561 393.643 307.535 393.643 317.658C393.643 327.782 387.518 335.757 382.596 342.165C379.956 345.601 377.227 349.155 376.578 351.581C375.859 354.269 376.455 358.881 377.031 363.341C378.102 371.631 379.316 381.026 374.405 389.515C369.433 398.107 360.233 401.92 352.841 404.982C348.747 406.679 344.513 408.434 342.632 410.313C340.752 412.192 338.998 416.427 337.302 420.52C334.238 427.912 330.426 437.112 321.833 442.082C313.346 446.993 303.95 445.78 295.661 444.708C291.201 444.133 286.59 443.537 283.901 444.254C281.476 444.903 277.923 447.631 274.487 450.271C268.08 455.193 260.105 461.319 249.982 461.319H249.982Z" fill="#000C33"/>
<path d="M249.982 444.639C241.035 444.639 233.986 439.224 228.321 434.875C225.283 432.542 222.142 430.129 219.999 429.556C217.621 428.92 213.545 429.447 209.603 429.956C202.276 430.902 193.972 431.976 186.469 427.635C178.874 423.24 175.505 415.109 172.797 408.575C171.297 404.955 169.747 401.213 168.085 399.552C166.423 397.891 162.681 396.339 159.063 394.84C152.529 392.133 144.398 388.763 140.004 381.169C135.664 373.667 136.736 365.362 137.684 358.035C138.193 354.093 138.72 350.017 138.085 347.641C137.512 345.498 135.1 342.357 132.768 339.32C128.417 333.654 123.002 326.606 123.002 317.658C123.002 308.71 128.416 301.661 132.767 295.997C135.1 292.96 137.512 289.818 138.085 287.675C138.721 285.298 138.194 281.222 137.685 277.28C136.738 269.953 135.665 261.648 140.007 254.145C144.401 246.551 152.533 243.181 159.067 240.474C162.685 238.974 166.428 237.423 168.089 235.762C169.751 234.101 171.302 230.358 172.801 226.74C175.509 220.207 178.878 212.074 186.473 207.681C193.976 203.34 202.281 204.413 209.607 205.361C213.55 205.869 217.625 206.396 220.001 205.762C222.144 205.189 225.285 202.777 228.322 200.444C233.986 196.092 241.035 190.678 249.983 190.678C258.931 190.678 265.98 196.092 271.645 200.443C274.682 202.775 277.823 205.188 279.967 205.761C282.342 206.397 286.419 205.869 290.362 205.361C297.689 204.415 305.994 203.341 313.496 207.682C321.091 212.077 324.461 220.208 327.168 226.742C328.668 230.362 330.218 234.104 331.88 235.765C333.542 237.426 337.284 238.978 340.903 240.477C347.436 243.184 355.567 246.554 359.962 254.148C364.302 261.65 363.229 269.955 362.282 277.282C361.773 281.224 361.247 285.3 361.881 287.676C362.454 289.82 364.866 292.96 367.2 295.997C371.55 301.663 376.963 308.711 376.963 317.659C376.963 326.607 371.549 333.656 367.199 339.32C364.866 342.358 362.454 345.499 361.88 347.642C361.244 350.019 361.771 354.095 362.28 358.037C363.227 365.364 364.3 373.669 359.959 381.172C355.565 388.766 347.433 392.136 340.899 394.843C337.28 396.343 333.538 397.894 331.875 399.555C330.213 401.216 328.663 404.959 327.163 408.577C324.456 415.111 321.087 423.243 313.491 427.636C305.989 431.977 297.684 430.904 290.357 429.957C286.415 429.448 282.339 428.921 279.963 429.556C277.82 430.129 274.679 432.541 271.642 434.874C265.98 439.225 258.931 444.639 249.982 444.639V444.639Z" fill="#F8BBBB"/>
<path d="M271.643 434.874C274.68 432.541 277.821 430.129 279.964 429.556C282.34 428.922 286.417 429.449 290.358 429.957C297.684 430.905 305.989 431.978 313.492 427.637C321.087 423.242 324.457 415.111 327.164 408.578C328.664 404.959 330.214 401.217 331.876 399.556C333.538 397.894 337.28 396.343 340.9 394.844C347.434 392.137 355.565 388.767 359.96 381.172C364.301 373.669 363.228 365.365 362.281 358.037C361.772 354.095 361.245 350.02 361.881 347.643C362.454 345.499 364.867 342.358 367.2 339.321C371.549 333.656 376.963 326.607 376.963 317.659C376.963 308.711 371.549 301.662 367.199 295.998C364.865 292.961 362.454 289.82 361.88 287.676C361.245 285.301 361.772 281.224 362.281 277.282C363.228 269.955 364.301 261.651 359.961 254.148C355.567 246.554 347.435 243.184 340.902 240.477C337.283 238.977 333.541 237.427 331.879 235.766C330.217 234.104 328.666 230.361 327.167 226.743C324.46 220.209 321.09 212.078 313.495 207.683C305.993 203.342 297.688 204.415 290.361 205.361C286.418 205.87 282.341 206.398 279.966 205.761C277.821 205.188 274.681 202.776 271.644 200.443C265.98 196.092 258.931 190.678 249.983 190.678V444.638C258.931 444.638 265.98 439.223 271.644 434.874L271.643 434.874Z" fill="#B86E6E"/>
<path d="M249.982 415.991C304.289 415.991 348.314 371.966 348.314 317.659C348.314 263.352 304.289 219.327 249.982 219.327C195.675 219.327 151.65 263.352 151.65 317.659C151.65 371.966 195.675 415.991 249.982 415.991Z" fill="#48068E"/>
<path d="M301.165 229.94H198.913L147.786 318.493L198.913 407.046H301.165L352.291 318.493L301.165 229.94Z" fill="#000C33"/>
<path d="M293.159 243.807L309.171 216.072H190.906L206.919 243.807H293.159Z" fill="#EABAAC"/>
<path d="M336.279 318.493H368.304L309.171 216.072L293.159 243.807L336.279 318.493Z" fill="#C68C75"/>
<path d="M336.279 318.493L293.159 393.179L309.171 420.914L368.304 318.493H336.279Z" fill="#A86952"/>
<path d="M206.919 393.179L190.906 420.914H309.171L293.159 393.179H206.919Z" fill="#C68C75"/>
<path d="M163.799 318.493H131.774L190.906 420.914L206.919 393.179L163.799 318.493Z" fill="#EABAAC"/>
<path d="M206.919 243.807L190.906 216.072L131.774 318.493H163.799L206.919 243.807Z" fill="#FFDED4"/>
<path d="M100.117 407.046L170.671 366.312L146.522 343.656L100.117 407.046Z" fill="#FFDED4"/>
<path d="M178.217 398.554L170.671 366.312L100.117 407.046L178.217 398.554Z" fill="#EABAAC"/>
<path d="M351.948 288.991L391.497 234.966L330.14 270.39L351.948 288.991Z" fill="#C68C75"/>
<path d="M330.14 270.39L391.497 234.966L324.935 242.204L330.14 270.39Z" fill="#EABAAC"/>
<path d="M280.235 420.772L249.71 411.186V490L280.235 420.772Z" fill="#C68C75"/>
<path d="M249.71 490V411.186L219.186 420.772L249.71 490Z" fill="#EABAAC"/>
<path d="M221.527 216.191L249.71 225.777L249.711 152.273L221.527 216.191Z" fill="#EABAAC"/>
<path d="M249.711 152.273L249.71 225.777L277.894 216.191L249.711 152.273Z" fill="#C68C75"/>
<path d="M147.693 292.503L171.256 270.861L103.002 231.454L147.693 292.503Z" fill="#FFDED4"/>
<path d="M103.002 231.454L171.256 270.861L178.217 239.633L103.002 231.454Z" fill="#EABAAC"/>
<path d="M353.118 343.985L330.725 363.6L394.381 400.352L353.118 343.985Z" fill="#A86952"/>
<path d="M394.381 400.352L330.725 363.6L324.935 392.8L394.381 400.352Z" fill="#C68C75"/>
<path d="M254.02 267.503L268.962 297.777L302.372 302.632C303.228 302.757 304.032 303.118 304.693 303.676C305.354 304.233 305.846 304.964 306.114 305.787C306.381 306.61 306.413 307.491 306.205 308.33C305.998 309.17 305.56 309.935 304.941 310.539L280.764 334.104L286.472 367.379C286.618 368.232 286.523 369.108 286.197 369.909C285.871 370.711 285.327 371.405 284.628 371.913C283.928 372.421 283.1 372.724 282.237 372.786C281.375 372.849 280.512 372.668 279.746 372.266L249.863 356.555L219.98 372.266C219.214 372.668 218.352 372.848 217.489 372.786C216.626 372.724 215.798 372.421 215.099 371.913C214.399 371.404 213.855 370.71 213.53 369.909C213.204 369.108 213.108 368.232 213.255 367.379L218.962 334.104L194.786 310.539C194.166 309.935 193.728 309.17 193.521 308.33C193.314 307.49 193.345 306.609 193.613 305.787C193.88 304.964 194.372 304.233 195.033 303.675C195.695 303.118 196.499 302.756 197.355 302.632L230.765 297.777L245.706 267.503C246.089 266.727 246.681 266.074 247.416 265.617C248.15 265.16 248.998 264.918 249.863 264.918C250.728 264.918 251.576 265.16 252.311 265.617C253.045 266.074 253.637 266.727 254.02 267.503V267.503Z" fill="#EDCBBE"/>
<path d="M268.961 297.777L254.02 267.503C253.642 266.723 253.051 266.066 252.316 265.609C251.58 265.152 250.73 264.912 249.863 264.919V322.237L268.961 297.777Z" fill="#CEA897"/>
<path d="M280.765 334.104L304.94 310.538C305.557 309.946 305.995 309.193 306.206 308.365C306.416 307.536 306.391 306.665 306.132 305.85L249.863 322.237L280.765 334.104ZM284.642 371.902L249.863 322.237V356.555L279.746 372.266C280.513 372.676 281.38 372.859 282.247 372.795C283.114 372.731 283.944 372.421 284.642 371.902V371.902Z" fill="#CEA897"/>
<path d="M249.863 322.237L218.962 334.104L213.255 367.379C213.103 368.229 213.194 369.105 213.517 369.905C213.841 370.705 214.385 371.397 215.085 371.902L249.863 322.237Z" fill="#CEA897"/>
<path d="M193.594 305.851L249.863 322.237L230.765 297.777L197.355 302.632C196.486 302.752 195.67 303.12 195.003 303.69C194.337 304.261 193.848 305.011 193.595 305.851H193.594Z" fill="#CEA897"/>
</svg>
