<svg width="270" height="306" viewBox="0 0 270 306" fill="none" xmlns="http://www.w3.org/2000/svg">
<path d="M135 286.14C125.487 286.14 117.993 280.383 111.97 275.759C108.741 273.279 105.402 270.714 103.123 270.105C100.595 269.428 96.2612 269.988 92.0707 270.53C84.2804 271.536 75.4518 272.678 67.4758 268.062C59.4007 263.39 55.8186 254.745 52.9401 247.799C51.3457 243.951 49.6973 239.972 47.9306 238.206C46.1638 236.44 42.185 234.79 38.3379 233.196C31.392 230.318 22.7472 226.736 18.0755 218.662C13.4614 210.686 14.6015 201.857 15.6088 194.067C16.1502 189.876 16.7102 185.542 16.0352 183.016C15.426 180.737 12.8617 177.398 10.3819 174.169C5.75652 168.146 0 160.653 0 151.139C0 141.626 5.75586 134.132 10.3811 128.11C12.862 124.881 15.426 121.541 16.0352 119.262C16.7109 116.736 16.1508 112.402 15.6095 108.211C14.6028 100.421 13.4619 91.5917 18.0775 83.6149C22.7492 75.5405 31.3947 71.9578 38.3414 69.0799C42.1885 67.4855 46.1672 65.8365 47.934 64.0704C49.7009 62.3042 51.3492 58.3249 52.9435 54.4785C55.8221 47.5325 59.4041 38.887 67.4792 34.216C75.456 29.6004 84.2849 30.7413 92.0741 31.7493C96.2652 32.29 100.599 32.85 103.125 32.1758C105.403 31.5666 108.742 29.0023 111.971 26.5217C117.993 21.895 125.487 16.1391 135 16.1391C144.513 16.1391 152.008 21.895 158.03 26.5203C161.26 29.0002 164.599 31.5651 166.878 32.1744C169.403 32.851 173.737 32.2893 177.929 31.7486C185.719 30.7431 194.548 29.6018 202.524 34.2167C210.599 38.889 214.181 47.5339 217.06 54.4805C218.654 58.3284 220.303 62.3071 222.07 64.0732C223.836 65.8393 227.815 67.489 231.662 69.0826C238.608 71.9606 247.253 75.5433 251.925 83.6169C256.539 91.593 255.399 100.422 254.392 108.212C253.851 112.403 253.291 116.736 253.966 119.263C254.575 121.542 257.139 124.881 259.62 128.11C264.244 134.134 270 141.627 270 151.14C270 160.653 264.244 168.147 259.619 174.169C257.138 177.398 254.574 180.738 253.964 183.017C253.288 185.543 253.849 189.877 254.39 194.068C255.397 201.858 256.537 210.687 251.922 218.664C247.25 226.739 238.605 230.321 231.658 233.199C227.811 234.794 223.832 236.443 222.065 238.209C220.297 239.975 218.65 243.954 217.055 247.801C214.177 254.747 210.595 263.392 202.519 268.063C194.543 272.678 185.714 271.538 177.925 270.531C173.733 269.99 169.4 269.43 166.874 270.104C164.595 270.713 161.256 273.278 158.027 275.758C152.007 280.383 144.513 286.14 135 286.14H135Z" fill="#000C33"/>
<path d="M134.985 262.872C127.133 262.872 120.947 258.121 115.977 254.304C113.311 252.257 110.555 250.14 108.674 249.637C106.588 249.079 103.011 249.541 99.552 249.988C93.1224 250.819 85.8352 251.761 79.252 247.951C72.5871 244.095 69.6306 236.96 67.2547 231.226C65.9385 228.05 64.5783 224.766 63.1199 223.309C61.6615 221.851 58.3778 220.489 55.2025 219.174C49.4695 216.798 42.3343 213.841 38.4784 207.178C34.6701 200.594 35.6111 193.307 36.4426 186.878C36.8895 183.418 37.3518 179.841 36.7947 177.757C36.2918 175.876 34.1753 173.12 32.1285 170.455C28.3109 165.483 23.5596 159.298 23.5596 151.447C23.5596 143.595 28.3103 137.409 32.128 132.439C34.1753 129.774 36.2918 127.017 36.7947 125.136C37.3523 123.051 36.8901 119.474 36.4437 116.015C35.6129 109.585 34.6711 102.298 38.4808 95.7141C42.3366 89.0498 49.4724 86.0928 55.2059 83.7174C58.3813 82.4011 61.6652 81.0403 63.1234 79.5827C64.5817 78.1251 65.9421 74.8405 67.2581 71.6658C69.6341 65.9328 72.5905 58.797 79.2555 54.9417C85.8393 51.1321 93.1265 52.0738 99.5554 52.9059C103.015 53.3521 106.591 53.8144 108.676 53.2579C110.557 52.755 113.313 50.6385 115.978 48.5912C120.948 44.7724 127.133 40.0217 134.985 40.0217C142.837 40.0217 149.022 44.7724 153.993 48.59C156.659 50.6368 159.415 52.7538 161.296 53.2567C163.38 53.815 166.957 53.3516 170.417 52.9057C176.847 52.0761 184.135 51.1338 190.718 54.9429C197.383 58.7993 200.339 65.9345 202.715 71.668C204.031 74.8439 205.391 78.1278 206.85 79.5855C208.308 81.0432 211.592 82.4048 214.767 83.7202C220.5 86.0956 227.635 89.0526 231.491 95.7164C235.3 102.3 234.359 109.587 233.528 116.016C233.081 119.476 232.619 123.052 233.176 125.137C233.679 127.018 235.795 129.774 237.843 132.439C241.66 137.411 246.41 143.596 246.41 151.447C246.41 159.299 241.66 165.485 237.842 170.455C235.795 173.12 233.678 175.877 233.175 177.758C232.617 179.843 233.079 183.42 233.526 186.879C234.357 193.309 235.298 200.596 231.489 207.18C227.633 213.844 220.497 216.801 214.764 219.177C211.588 220.493 208.304 221.854 206.846 223.311C205.387 224.769 204.027 228.054 202.711 231.228C200.335 236.961 197.378 244.097 190.714 247.952C184.13 251.761 176.843 250.82 170.414 249.989C166.954 249.543 163.378 249.08 161.293 249.637C159.412 250.14 156.656 252.256 153.991 254.303C149.022 258.121 142.837 262.872 134.985 262.872V262.872Z" fill="#8A65BA"/>
<path d="M153.992 254.304C156.657 252.257 159.413 250.14 161.294 249.637C163.379 249.081 166.956 249.543 170.414 249.989C176.843 250.821 184.131 251.762 190.714 247.953C197.379 244.097 200.336 236.962 202.712 231.229C204.028 228.053 205.388 224.769 206.846 223.312C208.305 221.854 211.589 220.492 214.764 219.177C220.498 216.802 227.634 213.845 231.49 207.18C235.299 200.597 234.357 193.309 233.527 186.879C233.08 183.42 232.617 179.844 233.176 177.758C233.678 175.877 235.796 173.121 237.843 170.456C241.659 165.484 246.41 159.299 246.41 151.447C246.41 143.595 241.659 137.41 237.842 132.44C235.794 129.775 233.678 127.019 233.175 125.138C232.617 123.053 233.08 119.476 233.527 116.017C234.358 109.587 235.3 102.3 231.491 95.7169C227.635 89.053 220.499 86.096 214.767 83.7206C211.591 82.4044 208.307 81.0443 206.849 79.5859C205.391 78.1276 204.03 74.8438 202.714 71.6684C200.339 65.9355 197.382 58.7997 190.717 54.9433C184.134 51.1342 176.847 52.076 170.416 52.9062C166.957 53.3525 163.379 53.8159 161.295 53.2572C159.413 52.7544 156.657 50.6372 153.992 48.5905C149.022 44.7723 142.837 40.0216 134.985 40.0216V262.871C142.837 262.871 149.022 258.12 153.992 254.303L153.992 254.304Z" fill="#AE9D00"/>
<path d="M134.984 237.734C182.639 237.734 221.271 199.102 221.271 151.447C221.271 103.793 182.639 65.1611 134.984 65.1611C87.3296 65.1611 48.6979 103.793 48.6979 151.447C48.6979 199.102 87.3296 237.734 134.984 237.734Z" fill="#AC8F27"/>
<path d="M179.897 74.474H90.1712L45.3072 152.179L90.1712 229.884H179.897L224.76 152.179L179.897 74.474Z" fill="#000C33"/>
<path d="M172.872 86.6423L186.923 62.3048H83.145L97.1964 86.6423H172.872Z" fill="#EABAAC"/>
<path d="M210.71 152.179H238.812L186.923 62.3048L172.872 86.6423L210.71 152.179Z" fill="#C68C75"/>
<path d="M210.71 152.179L172.872 217.716L186.923 242.054L238.812 152.179H210.71Z" fill="#A86952"/>
<path d="M97.1964 217.716L83.145 242.054H186.923L172.872 217.716H97.1964Z" fill="#C68C75"/>
<path d="M59.3586 152.179H31.2567L83.145 242.054L97.1964 217.716L59.3586 152.179Z" fill="#EABAAC"/>
<path d="M97.1964 86.6423L83.145 62.3048L31.2567 152.179H59.3586L97.1964 86.6423Z" fill="#FFDED4"/>
<path d="M3.47766 229.885L65.3888 194.14L44.1981 174.26L3.47766 229.885Z" fill="#FFDED4"/>
<path d="M72.0104 222.433L65.3888 194.14L3.47766 229.884L72.0104 222.433Z" fill="#EABAAC"/>
<path d="M135.82 305.205L135.655 233.716L107.862 242.192L135.82 305.205Z" fill="#FFDED4"/>
<path d="M163.487 242.064L135.655 233.716L135.82 305.205L163.487 242.064Z" fill="#EABAAC"/>
<path d="M135.238 5.46929e-06L134.252 71.4819L162.178 63.4548L135.238 5.46929e-06Z" fill="#FFDED4"/>
<path d="M106.558 62.6874L134.252 71.4819L135.238 6.88227e-06L106.558 62.6874Z" fill="#EABAAC"/>
<path d="M224.459 126.291L259.164 78.8843L205.323 109.969L224.459 126.291Z" fill="#C68C75"/>
<path d="M205.323 109.969L259.164 78.8843L200.755 85.2356L205.323 109.969Z" fill="#EABAAC"/>
<path d="M45.2256 129.373L65.9021 110.382L6.00925 75.8025L45.2256 129.373Z" fill="#FFDED4"/>
<path d="M6.00925 75.8025L65.9021 110.382L72.0104 82.9796L6.00925 75.8025Z" fill="#EABAAC"/>
<path d="M225.486 174.548L205.836 191.761L261.694 224.011L225.486 174.548Z" fill="#A86952"/>
<path d="M261.694 224.011L205.836 191.761L200.755 217.384L261.694 224.011Z" fill="#C68C75"/>
<path d="M104.265 125.49L112.078 141.32L129.546 143.858C129.994 143.923 130.414 144.112 130.76 144.404C131.106 144.695 131.363 145.078 131.503 145.508C131.643 145.938 131.659 146.398 131.551 146.837C131.442 147.276 131.213 147.676 130.89 147.992L118.249 160.313L121.233 177.712C121.309 178.157 121.26 178.616 121.089 179.034C120.919 179.453 120.635 179.816 120.269 180.082C119.903 180.348 119.47 180.506 119.019 180.539C118.568 180.571 118.117 180.477 117.716 180.266L102.092 172.052L86.4674 180.266C86.0671 180.477 85.616 180.571 85.1649 180.538C84.7139 180.506 84.281 180.348 83.9152 180.082C83.5493 179.816 83.2651 179.453 83.0947 179.034C82.9244 178.615 82.8746 178.157 82.951 177.712L85.935 160.313L73.2944 147.992C72.9705 147.676 72.7415 147.276 72.6331 146.837C72.5247 146.398 72.5414 145.938 72.6811 145.508C72.8209 145.077 73.0782 144.695 73.4239 144.404C73.7697 144.112 74.1901 143.923 74.6377 143.858L92.1062 141.32L99.9185 125.49C100.119 125.085 100.428 124.743 100.812 124.504C101.196 124.266 101.64 124.139 102.092 124.139C102.544 124.139 102.987 124.266 103.372 124.504C103.756 124.743 104.065 125.085 104.265 125.49V125.49Z" fill="#EDCBBE"/>
<path d="M112.078 141.32L104.266 125.491C104.068 125.083 103.759 124.74 103.375 124.5C102.99 124.261 102.545 124.136 102.092 124.139V154.109L112.078 141.32Z" fill="#CEA897"/>
<path d="M118.249 160.313L130.89 147.992C131.212 147.682 131.441 147.288 131.551 146.855C131.661 146.422 131.648 145.967 131.512 145.541L102.092 154.108L118.249 160.313ZM120.276 180.076L102.092 154.108V172.052L117.717 180.266C118.117 180.481 118.571 180.577 119.024 180.543C119.477 180.509 119.912 180.347 120.276 180.076V180.076Z" fill="#CEA897"/>
<path d="M102.092 154.109L85.9349 160.314L82.9511 177.712C82.8715 178.156 82.9191 178.614 83.0884 179.032C83.2577 179.45 83.5418 179.812 83.9079 180.076L102.092 154.109Z" fill="#CEA897"/>
<path d="M72.6716 145.541L102.092 154.108L92.1065 141.32L74.6379 143.858C74.1835 143.921 73.7566 144.113 73.4081 144.411C73.0596 144.709 72.8041 145.101 72.672 145.541H72.6716Z" fill="#CEA897"/>
<path d="M175.14 124.647L182.953 140.476L200.421 143.014C200.869 143.079 201.289 143.268 201.635 143.56C201.981 143.851 202.238 144.234 202.378 144.664C202.518 145.094 202.534 145.555 202.426 145.994C202.317 146.433 202.088 146.833 201.765 147.148L189.124 159.47L192.108 176.868C192.184 177.314 192.135 177.772 191.964 178.191C191.794 178.61 191.51 178.972 191.144 179.238C190.778 179.504 190.345 179.662 189.894 179.695C189.443 179.727 188.992 179.633 188.591 179.423L172.967 171.208L157.342 179.423C156.942 179.633 156.491 179.727 156.04 179.695C155.589 179.662 155.156 179.504 154.79 179.238C154.424 178.972 154.14 178.61 153.97 178.191C153.799 177.772 153.75 177.314 153.826 176.868L156.81 159.47L144.169 147.148C143.846 146.833 143.616 146.433 143.508 145.994C143.4 145.554 143.416 145.094 143.556 144.664C143.696 144.234 143.953 143.851 144.299 143.56C144.645 143.268 145.065 143.079 145.513 143.014L162.981 140.476L170.793 124.647C170.994 124.241 171.303 123.9 171.687 123.661C172.071 123.422 172.515 123.295 172.967 123.295C173.419 123.295 173.862 123.422 174.247 123.661C174.631 123.9 174.94 124.241 175.14 124.647V124.647Z" fill="#EDCBBE"/>
<path d="M182.953 140.476L175.141 124.647C174.943 124.239 174.634 123.896 174.25 123.657C173.865 123.418 173.42 123.292 172.967 123.296V153.265L182.953 140.476Z" fill="#CEA897"/>
<path d="M189.124 159.469L201.765 147.148C202.087 146.838 202.316 146.445 202.426 146.011C202.536 145.578 202.523 145.123 202.388 144.697L172.967 153.264L189.124 159.469ZM191.151 179.232L172.967 153.264V171.208L188.592 179.422C188.992 179.637 189.446 179.733 189.899 179.699C190.352 179.666 190.787 179.504 191.151 179.232V179.232Z" fill="#CEA897"/>
<path d="M172.967 153.265L156.81 159.47L153.826 176.868C153.747 177.312 153.794 177.77 153.963 178.188C154.133 178.607 154.417 178.969 154.783 179.233L172.967 153.265Z" fill="#CEA897"/>
<path d="M143.547 144.697L172.967 153.264L162.982 140.476L145.513 143.014C145.059 143.077 144.632 143.269 144.283 143.567C143.935 143.866 143.679 144.258 143.547 144.697H143.547Z" fill="#CEA897"/>
</svg>
