<svg width="500" height="500" viewBox="0 0 500 500" fill="none" xmlns="http://www.w3.org/2000/svg">
<path d="M289.026 239.007L318.541 226.322C319.018 226.117 319.53 226.007 320.049 226C320.568 225.993 321.082 226.09 321.564 226.282C322.046 226.474 322.485 226.759 322.857 227.12C323.229 227.482 323.525 227.913 323.73 228.391L379.95 359.191C380.441 360.331 380.614 361.583 380.452 362.815C380.289 364.046 379.796 365.21 379.027 366.185C378.257 367.16 377.238 367.908 376.077 368.351C374.917 368.795 373.659 368.916 372.435 368.703L342.535 363.498L289.026 239.007ZM245 251.694L215.484 239.007L161.976 363.498L178.774 388.776C179.462 389.81 180.416 390.639 181.536 391.176C182.657 391.713 183.9 391.937 185.137 391.826C186.374 391.714 187.558 391.269 188.563 390.54C189.569 389.811 190.358 388.824 190.849 387.683L247.069 256.883C247.274 256.406 247.383 255.894 247.389 255.375C247.396 254.856 247.301 254.342 247.109 253.86C246.917 253.378 246.632 252.939 246.27 252.567C245.908 252.195 245.476 251.899 245 251.694Z" fill="#271944"/>
<path d="M292.814 236.499L262.897 248.206C262.415 248.395 261.973 248.677 261.599 249.036C261.224 249.396 260.926 249.826 260.718 250.301C260.51 250.777 260.398 251.288 260.387 251.807C260.377 252.324 260.468 252.84 260.658 253.324L312.538 385.905C312.991 387.061 313.747 388.074 314.729 388.836C315.709 389.598 316.877 390.08 318.11 390.233C319.343 390.386 320.593 390.203 321.73 389.703C322.867 389.204 323.848 388.406 324.569 387.395L342.192 362.685L292.814 236.499Z" fill="#2EA4AB"/>
<path d="M215.484 239.007L185.969 226.322C185.493 226.117 184.98 226.007 184.462 226C183.943 225.993 183.428 226.09 182.946 226.282C182.464 226.474 182.025 226.759 181.653 227.12C181.282 227.482 180.985 227.913 180.78 228.391L124.56 359.191C124.07 360.331 123.896 361.583 124.06 362.815C124.222 364.046 124.714 365.21 125.484 366.185C126.254 367.16 127.273 367.908 128.433 368.351C129.593 368.795 130.852 368.916 132.075 368.703L161.976 363.498L215.484 239.007Z" fill="#2EA4AB"/>
<path d="M252.836 336.783C243.053 336.783 235.346 330.863 229.152 326.107C225.831 323.557 222.397 320.918 220.053 320.292C217.454 319.596 212.997 320.172 208.687 320.73C200.676 321.764 191.596 322.938 183.394 318.192C175.089 313.386 171.406 304.496 168.445 297.352C166.805 293.395 165.11 289.303 163.293 287.487C161.476 285.669 157.385 283.974 153.428 282.335C146.285 279.375 137.395 275.691 132.59 267.388C127.845 259.185 129.017 250.105 130.053 242.094C130.61 237.784 131.186 233.327 130.492 230.73C129.865 228.386 127.228 224.952 124.678 221.632C119.921 215.437 114.001 207.731 114.001 197.948C114.001 188.164 119.921 180.458 124.677 174.264C127.228 170.943 129.865 167.509 130.492 165.165C131.187 162.567 130.611 158.11 130.054 153.8C129.019 145.788 127.846 136.709 132.592 128.505C137.397 120.202 146.288 116.517 153.432 113.557C157.389 111.917 161.48 110.222 163.297 108.406C165.114 106.589 166.81 102.497 168.449 98.5412C171.409 91.398 175.093 82.5069 183.398 77.7032C191.601 72.9565 200.681 74.1298 208.691 75.1664C213.001 75.7225 217.458 76.2985 220.056 75.605C222.399 74.9785 225.833 72.3413 229.154 69.7903C235.346 65.0322 243.054 59.1128 252.837 59.1128C262.62 59.1128 270.327 65.0322 276.52 69.7889C279.842 72.3389 283.276 74.977 285.619 75.6036C288.217 76.2992 292.674 75.7218 296.985 75.1657C304.996 74.1319 314.076 72.9579 322.279 77.7039C330.583 82.509 334.267 91.3994 337.228 98.5439C338.868 102.501 340.563 106.593 342.379 108.409C344.196 110.225 348.288 111.922 352.245 113.561C359.388 116.521 368.278 120.205 373.083 128.508C377.829 136.711 376.655 145.79 375.62 153.802C375.063 158.112 374.487 162.568 375.182 165.166C375.808 167.51 378.445 170.944 380.996 174.264C385.752 180.459 391.672 188.165 391.672 197.948C391.672 207.732 385.752 215.438 380.995 221.632C378.444 224.953 375.807 228.387 375.18 230.731C374.485 233.329 375.061 237.786 375.618 242.096C376.653 250.107 377.826 259.187 373.08 267.391C368.275 275.694 359.384 279.379 352.24 282.339C348.284 283.979 344.192 285.674 342.374 287.49C340.557 289.306 338.862 293.399 337.223 297.355C334.263 304.498 330.578 313.389 322.274 318.193C314.071 322.939 304.991 321.766 296.98 320.73C292.67 320.174 288.214 319.598 285.616 320.292C283.273 320.918 279.839 323.555 276.518 326.106C270.327 330.863 262.62 336.783 252.837 336.783H252.836Z" fill="#2EA4AB"/>
<path d="M252.836 325.572C243.843 325.572 236.758 320.13 231.065 315.758C228.012 313.414 224.855 310.989 222.701 310.413C220.311 309.773 216.214 310.303 212.252 310.815C204.888 311.766 196.542 312.845 189.001 308.482C181.367 304.065 177.981 295.892 175.26 289.325C173.752 285.688 172.194 281.926 170.524 280.257C168.854 278.587 165.092 277.028 161.455 275.521C154.889 272.8 146.716 269.413 142.3 261.781C137.938 254.241 139.016 245.894 139.968 238.53C140.48 234.568 141.009 230.47 140.371 228.083C139.795 225.928 137.371 222.772 135.027 219.719C130.654 214.025 125.212 206.941 125.212 197.948C125.212 188.955 130.653 181.87 135.026 176.177C137.371 173.124 139.795 169.967 140.371 167.812C141.01 165.424 140.481 161.327 139.969 157.365C139.017 150 137.939 141.654 142.302 134.113C146.718 126.48 154.892 123.093 161.459 120.372C165.096 118.865 168.857 117.306 170.527 115.636C172.197 113.967 173.756 110.205 175.263 106.568C177.984 100.002 181.371 91.8284 189.005 87.413C196.545 83.0496 204.892 84.1281 212.256 85.0811C216.218 85.5922 220.314 86.1217 222.703 85.4842C224.856 84.9083 228.013 82.4842 231.066 80.1391C236.758 75.7652 243.843 70.3238 252.836 70.3238C261.83 70.3238 268.914 75.7652 274.608 80.1378C277.661 82.4821 280.818 84.907 282.972 85.4829C285.359 86.1223 289.457 85.5916 293.419 85.0804C300.784 84.1304 309.131 83.0509 316.671 87.4136C324.305 91.8307 327.691 100.004 330.413 106.57C331.92 110.208 333.478 113.969 335.148 115.639C336.819 117.308 340.58 118.868 344.217 120.375C350.784 123.095 358.956 126.482 363.372 134.115C367.735 141.655 366.657 150.002 365.705 157.366C365.193 161.328 364.664 165.424 365.302 167.813C365.878 169.967 368.302 173.124 370.647 176.176C375.019 181.87 380.46 188.954 380.46 197.948C380.46 206.941 375.019 214.026 370.646 219.719C368.301 222.772 365.877 225.929 365.301 228.083C364.662 230.472 365.191 234.569 365.703 238.53C366.655 245.895 367.733 254.242 363.37 261.783C358.953 269.416 350.78 272.803 344.213 275.524C340.576 277.031 336.815 278.59 335.144 280.259C333.473 281.929 331.915 285.691 330.408 289.327C327.687 295.894 324.3 304.067 316.667 308.483C309.127 312.845 300.779 311.768 293.415 310.815C289.453 310.304 285.357 309.775 282.969 310.412C280.815 310.988 277.659 313.412 274.606 315.757C268.914 320.13 261.83 325.572 252.836 325.572Z" fill="#271944"/>
<path d="M301.951 112.646H203.426L154.163 197.971L203.426 283.296H301.951L351.213 197.971L301.951 112.646Z" fill="#000C33"/>
<path d="M294.236 126.008L309.665 99.284H195.711L211.14 126.008H294.236Z" fill="#3FCDC5"/>
<path d="M335.784 197.971H366.642L309.665 99.284L294.236 126.008L335.784 197.971Z" fill="#0B7B82"/>
<path d="M335.784 197.971L294.236 269.934L309.665 296.658L366.642 197.971H335.784Z" fill="#0DA8B1"/>
<path d="M211.14 269.934L195.711 296.658H309.665L294.236 269.934H211.14Z" fill="#0B7B82"/>
<path d="M169.592 197.971H138.735L195.711 296.658L211.14 269.934L169.592 197.971Z" fill="#3FCDC5"/>
<path d="M211.14 126.008L195.711 99.284L138.735 197.971H169.592L211.14 126.008Z" fill="#C4F2EA"/>
<path d="M252.371 257.039C285.006 257.039 311.462 230.583 311.462 197.948C311.462 165.313 285.006 138.857 252.371 138.857C219.736 138.857 193.28 165.313 193.28 197.948C193.28 230.583 219.736 257.039 252.371 257.039Z" fill="#000C33"/>
<path d="M210.774 197.178L187.1 229.517C186.488 230.339 186.131 231.322 186.076 232.345C186.02 233.368 186.268 234.385 186.788 235.267L252.761 197.177L210.774 197.178Z" fill="#46C5BD"/>
<path d="M186.788 159.089C186.268 159.971 186.02 160.988 186.076 162.011C186.131 163.034 186.488 164.018 187.1 164.839L210.774 197.178H252.761L186.788 159.089Z" fill="#C4F2EA"/>
<path d="M252.798 197.115L252.765 120.999C251.74 120.989 250.735 121.283 249.876 121.842C249.017 122.402 248.343 123.202 247.938 124.144L231.768 160.816L252.761 197.178L252.798 197.115Z" fill="#C4F2EA"/>
<path d="M252.761 197.178L252.798 197.157V197.115L252.761 197.178Z" fill="#C4F2EA"/>
<path d="M231.768 160.816L191.924 156.484C190.907 156.364 189.876 156.547 188.963 157.011C188.049 157.474 187.293 158.197 186.788 159.089L252.761 197.178L231.768 160.816Z" fill="#46C5BD"/>
<path d="M252.798 197.178V197.157L252.761 197.178H252.798Z" fill="#C4F2EA"/>
<path d="M252.798 197.199V197.178H252.761L252.798 197.199Z" fill="#C4F2EA"/>
<path d="M252.798 197.241V197.199L252.761 197.178L252.798 197.241Z" fill="#C4F2EA"/>
<path d="M186.788 235.267C187.293 236.159 188.049 236.882 188.963 237.346C189.876 237.809 190.906 237.992 191.924 237.873L231.768 233.54L252.761 197.178L186.788 235.267ZM252.83 273.352C253.843 273.349 254.832 273.05 255.677 272.493C256.521 271.935 257.185 271.142 257.585 270.212L273.755 233.54L252.798 197.241L252.83 273.352Z" fill="#C4F2EA"/>
<path d="M252.761 197.178L231.768 233.54L247.938 270.212C248.348 271.163 249.033 271.971 249.904 272.53C250.776 273.089 251.795 273.376 252.831 273.352L252.798 197.241L252.761 197.178Z" fill="#46C5BD"/>
<path d="M252.798 197.241L273.755 233.54L313.599 237.873C314.616 237.992 315.646 237.809 316.56 237.346C317.474 236.882 318.23 236.159 318.734 235.268L252.798 197.199V197.241ZM273.755 160.816L257.585 124.144C257.18 123.204 256.507 122.404 255.65 121.844C254.792 121.285 253.789 120.991 252.765 120.999L252.798 197.115L273.755 160.816Z" fill="#46C5BD"/>
<path d="M252.798 197.157L318.734 159.089C318.23 158.197 317.473 157.474 316.56 157.01C315.646 156.547 314.616 156.364 313.599 156.484L273.755 160.816L252.798 197.115V197.157Z" fill="#C4F2EA"/>
<path d="M252.798 197.157V197.178H294.748L318.422 164.839C319.035 164.017 319.391 163.034 319.447 162.011C319.502 160.988 319.254 159.971 318.734 159.089L252.798 197.157Z" fill="#46C5BD"/>
<path d="M252.798 197.199L318.734 235.268C319.254 234.385 319.502 233.368 319.447 232.346C319.391 231.323 319.035 230.339 318.422 229.518L294.749 197.178H252.798V197.199Z" fill="#C4F2EA"/>
<path d="M315.806 70.7174L335.476 45.8557C335.144 45.5874 334.74 45.4236 334.315 45.384C333.89 45.3447 333.463 45.4316 333.087 45.6345L318.325 53.4274L315.777 70.7284L315.806 70.7174Z" fill="#C4F2EA"/>
<path d="M302.068 59.8717L285.976 64.3094C285.563 64.4196 285.193 64.6482 284.91 64.968C284.627 65.2876 284.445 65.6838 284.387 66.1062L315.777 70.7281L302.068 59.8717Z" fill="#46C5BD"/>
<path d="M304.085 41.2329C303.687 41.3864 303.343 41.6543 303.097 42.0028C302.85 42.3511 302.712 42.7647 302.7 43.191L302.068 59.8717L315.777 70.7284L304.085 41.2329Z" fill="#C4F2EA"/>
<path d="M318.325 53.4274L306.435 41.7103C306.134 41.4081 305.75 41.2013 305.332 41.1167C304.914 41.0316 304.48 41.0721 304.085 41.2328L315.777 70.7284L318.325 53.4274Z" fill="#46C5BD"/>
<path d="M315.778 70.7276L315.795 70.7302L315.805 70.717L315.778 70.7276Z" fill="#C4F2EA"/>
<path d="M315.783 70.7432L315.788 70.737L315.777 70.7284L315.783 70.7432Z" fill="#C4F2EA"/>
<path d="M315.789 70.7363L315.793 70.7302L315.778 70.7277L315.789 70.7363Z" fill="#C4F2EA"/>
<path d="M315.773 70.7573L315.784 70.7442L315.777 70.7284L315.773 70.7573Z" fill="#C4F2EA"/>
<path d="M284.387 66.1062C284.321 66.528 284.381 66.9596 284.56 67.3474C284.738 67.7347 285.027 68.0607 285.39 68.2851L299.52 77.1729L315.777 70.7284L284.387 66.1062ZM296.103 95.6183C296.435 95.8792 296.835 96.0373 297.255 96.074C297.675 96.11 298.097 96.0228 298.468 95.8225L313.23 88.0297L315.773 70.7585L296.103 95.6183Z" fill="#C4F2EA"/>
<path d="M315.777 70.7283L299.52 77.1729L295.318 93.328C295.206 93.7446 295.22 94.1855 295.36 94.5933C295.5 95.0013 295.759 95.3584 296.103 95.6185L315.773 70.7585L315.777 70.7283Z" fill="#46C5BD"/>
<path d="M315.773 70.7585L313.23 88.0297L325.119 99.7471C325.42 100.049 325.804 100.256 326.222 100.341C326.641 100.425 327.074 100.385 327.469 100.224L315.784 70.7448L315.773 70.7585ZM332.034 64.2841L336.237 48.129C336.348 47.7173 336.335 47.2821 336.2 46.8777C336.064 46.4733 335.813 46.1179 335.476 45.8558L315.806 70.7174L332.034 64.2841Z" fill="#46C5BD"/>
<path d="M315.784 70.7448L327.469 100.224C327.868 100.07 328.211 99.8025 328.458 99.4546C328.704 99.1061 328.842 98.6927 328.854 98.2662L329.487 81.5854L315.789 70.738L315.784 70.7448Z" fill="#C4F2EA"/>
<path d="M315.795 70.7311L347.167 75.3506C347.233 74.929 347.173 74.4972 346.995 74.1097C346.816 73.7221 346.527 73.3961 346.164 73.1723L332.034 64.2841L315.806 70.7174L315.795 70.7311Z" fill="#C4F2EA"/>
<path d="M315.795 70.7311L315.789 70.738L329.487 81.5852L345.579 77.1474C345.991 77.0376 346.362 76.8086 346.645 76.4891C346.927 76.1693 347.109 75.7731 347.167 75.3507L315.795 70.7311Z" fill="#46C5BD"/>
<path d="M176.532 83.5571L178.59 100.122C178.639 100.546 178.812 100.946 179.087 101.272C179.363 101.598 179.728 101.836 180.138 101.955L189.261 71.5658L176.532 83.5571Z" fill="#46C5BD"/>
<path d="M158.382 78.8598C158.476 79.2757 158.692 79.6549 159.001 79.949C159.309 80.2434 159.699 80.4398 160.119 80.5139L176.532 83.5571L189.261 71.566L158.382 78.8598Z" fill="#C4F2EA"/>
<path d="M189.254 71.5364L167.506 48.4698C167.193 48.7595 166.972 49.1356 166.871 49.5504C166.771 49.9655 166.795 50.4005 166.941 50.8018L172.512 66.5376L189.261 71.5661L189.254 71.5364Z" fill="#C4F2EA"/>
<path d="M189.26 71.5653L189.265 71.5491L189.254 71.5369L189.26 71.5653Z" fill="#C4F2EA"/>
<path d="M172.512 66.5376L159.195 76.6033C158.853 76.8574 158.592 77.2073 158.448 77.6087C158.303 78.0101 158.28 78.4452 158.382 78.8599L189.261 71.5661L172.512 66.5376Z" fill="#46C5BD"/>
<path d="M189.27 71.5559L189.265 71.5502L189.26 71.5654L189.27 71.5559Z" fill="#C4F2EA"/>
<path d="M189.276 71.5623L189.271 71.5565L189.261 71.566L189.276 71.5623Z" fill="#C4F2EA"/>
<path d="M189.289 71.5742L189.277 71.562L189.261 71.566L189.289 71.5742Z" fill="#C4F2EA"/>
<path d="M180.138 101.955C180.546 102.081 180.981 102.084 181.391 101.964C181.8 101.843 182.164 101.605 182.439 101.278L193.281 88.5852L189.261 71.566L180.138 101.955ZM211.036 94.6399C211.343 94.3497 211.557 93.9766 211.654 93.5664C211.751 93.1562 211.725 92.7262 211.581 92.33L206.01 76.5941L189.29 71.5745L211.036 94.6399Z" fill="#C4F2EA"/>
<path d="M189.261 71.566L193.281 88.5852L208.656 95.0851C209.052 95.2563 209.491 95.3056 209.915 95.2264C210.339 95.1468 210.729 94.9428 211.037 94.6396L189.29 71.5745L189.261 71.566Z" fill="#46C5BD"/>
<path d="M189.29 71.5746L206.01 76.5942L219.327 66.5288C219.67 66.2744 219.93 65.9248 220.074 65.5234C220.219 65.1217 220.242 64.6866 220.14 64.2725L189.278 71.5618L189.29 71.5746ZM185.241 54.5465L169.866 48.0467C169.474 47.8774 169.042 47.8271 168.622 47.902C168.202 47.9776 167.814 48.1749 167.506 48.4698L189.254 71.5364L185.241 54.5465Z" fill="#46C5BD"/>
<path d="M189.266 71.5491L198.384 41.1774C197.976 41.0509 197.541 41.0479 197.131 41.168C196.722 41.2887 196.357 41.5273 196.083 41.8542L185.241 54.5465L189.254 71.5364L189.266 71.5491Z" fill="#C4F2EA"/>
<path d="M189.266 71.5491L189.272 71.5555L201.99 59.575L199.932 43.0097C199.883 42.5854 199.71 42.1858 199.435 41.8596C199.159 41.5338 198.794 41.2963 198.384 41.1774L189.266 71.5491Z" fill="#46C5BD"/>
<path d="M189.278 71.5618L220.14 64.2725C220.045 63.8563 219.83 63.4771 219.522 63.183C219.213 62.8888 218.824 62.6922 218.403 62.6184L201.99 59.5746L189.272 71.5554L189.278 71.5618Z" fill="#C4F2EA"/>
<path d="M108.232 282.296L176.214 243.047L152.945 221.217L108.232 282.296Z" fill="#C4F2EA"/>
<path d="M183.485 274.113L176.214 243.047L108.232 282.296L183.485 274.113Z" fill="#3FCDC5"/>
<path d="M350.882 168.544L388.989 116.489L329.869 150.622L350.882 168.544Z" fill="#0B7B82"/>
<path d="M329.869 150.622L388.989 116.489L324.854 123.463L329.869 150.622Z" fill="#3FCDC5"/>
<path d="M154.073 171.928L176.778 151.075L111.011 113.105L154.073 171.928Z" fill="#C4F2EA"/>
<path d="M111.011 113.105L176.778 151.075L183.485 120.986L111.011 113.105Z" fill="#3FCDC5"/>
<path d="M352.01 221.534L330.433 240.434L391.768 275.846L352.01 221.534Z" fill="#0DA8B1"/>
<path d="M391.768 275.846L330.433 240.434L324.854 268.569L391.768 275.846Z" fill="#0B7B82"/>
</svg>
