<svg width="500" height="500" viewBox="0 0 500 500" fill="none" xmlns="http://www.w3.org/2000/svg">
<path d="M252.836 336.783C243.053 336.783 235.346 330.863 229.152 326.107C225.831 323.557 222.397 320.918 220.053 320.292C217.454 319.596 212.997 320.172 208.687 320.73C200.676 321.764 191.596 322.938 183.394 318.192C175.089 313.386 171.406 304.496 168.445 297.352C166.805 293.395 165.11 289.303 163.293 287.487C161.476 285.669 157.385 283.974 153.428 282.335C146.285 279.375 137.395 275.691 132.59 267.388C127.845 259.185 129.017 250.105 130.053 242.094C130.61 237.784 131.186 233.327 130.492 230.73C129.865 228.386 127.228 224.952 124.678 221.632C119.921 215.437 114.001 207.731 114.001 197.948C114.001 188.164 119.921 180.458 124.677 174.264C127.228 170.943 129.865 167.509 130.492 165.165C131.187 162.567 130.611 158.11 130.054 153.8C129.019 145.788 127.846 136.709 132.592 128.505C137.397 120.202 146.288 116.517 153.432 113.557C157.389 111.917 161.48 110.222 163.297 108.406C165.114 106.589 166.81 102.497 168.449 98.5412C171.409 91.398 175.093 82.5069 183.398 77.7032C191.601 72.9565 200.681 74.1298 208.691 75.1664C213.001 75.7225 217.458 76.2985 220.056 75.605C222.399 74.9785 225.833 72.3413 229.154 69.7903C235.346 65.0322 243.054 59.1128 252.837 59.1128C262.62 59.1128 270.327 65.0322 276.52 69.7889C279.842 72.3389 283.276 74.977 285.619 75.6036C288.217 76.2992 292.674 75.7218 296.985 75.1657C304.996 74.1319 314.076 72.9579 322.279 77.7039C330.583 82.509 334.267 91.3994 337.228 98.5439C338.868 102.501 340.563 106.593 342.379 108.409C344.196 110.225 348.288 111.922 352.245 113.561C359.388 116.521 368.278 120.205 373.083 128.508C377.829 136.711 376.655 145.79 375.62 153.802C375.063 158.112 374.487 162.568 375.182 165.166C375.808 167.51 378.445 170.944 380.996 174.264C385.752 180.459 391.672 188.165 391.672 197.948C391.672 207.732 385.752 215.438 380.995 221.632C378.444 224.953 375.807 228.387 375.18 230.731C374.485 233.329 375.061 237.786 375.618 242.096C376.653 250.107 377.826 259.187 373.08 267.391C368.275 275.694 359.384 279.379 352.24 282.339C348.284 283.979 344.192 285.674 342.374 287.49C340.557 289.306 338.862 293.399 337.223 297.355C334.263 304.498 330.578 313.389 322.274 318.193C314.071 322.939 304.991 321.766 296.98 320.73C292.67 320.174 288.214 319.598 285.616 320.292C283.273 320.918 279.839 323.555 276.518 326.106C270.327 330.863 262.62 336.783 252.837 336.783H252.836Z" fill="#B70445"/>
<path d="M252.836 325.572C243.843 325.572 236.758 320.13 231.065 315.758C228.012 313.414 224.855 310.989 222.701 310.413C220.311 309.773 216.214 310.303 212.252 310.815C204.888 311.766 196.542 312.845 189.001 308.482C181.367 304.065 177.981 295.892 175.26 289.325C173.752 285.688 172.194 281.926 170.524 280.257C168.854 278.587 165.092 277.028 161.455 275.521C154.889 272.8 146.716 269.413 142.3 261.781C137.938 254.241 139.016 245.894 139.968 238.53C140.48 234.568 141.009 230.47 140.371 228.083C139.795 225.928 137.371 222.772 135.027 219.719C130.654 214.025 125.212 206.941 125.212 197.948C125.212 188.955 130.653 181.87 135.026 176.177C137.371 173.124 139.795 169.967 140.371 167.812C141.01 165.424 140.481 161.327 139.969 157.365C139.017 150 137.939 141.654 142.302 134.113C146.718 126.48 154.892 123.093 161.459 120.372C165.096 118.865 168.857 117.306 170.527 115.636C172.197 113.967 173.756 110.205 175.263 106.568C177.984 100.002 181.371 91.8284 189.005 87.413C196.545 83.0496 204.892 84.1281 212.256 85.0811C216.218 85.5922 220.314 86.1217 222.703 85.4842C224.856 84.9083 228.013 82.4842 231.066 80.1391C236.758 75.7652 243.843 70.3238 252.836 70.3238C261.83 70.3238 268.914 75.7652 274.608 80.1378C277.661 82.4821 280.818 84.907 282.972 85.4829C285.359 86.1223 289.457 85.5916 293.419 85.0804C300.784 84.1304 309.131 83.0509 316.671 87.4136C324.305 91.8307 327.691 100.004 330.413 106.57C331.92 110.208 333.478 113.969 335.148 115.639C336.819 117.308 340.58 118.868 344.217 120.375C350.784 123.095 358.956 126.482 363.372 134.115C367.735 141.655 366.657 150.002 365.705 157.366C365.193 161.328 364.664 165.424 365.302 167.813C365.878 169.967 368.302 173.124 370.647 176.176C375.019 181.87 380.46 188.954 380.46 197.948C380.46 206.941 375.019 214.026 370.646 219.719C368.301 222.772 365.877 225.929 365.301 228.083C364.662 230.472 365.191 234.569 365.703 238.53C366.655 245.895 367.733 254.242 363.37 261.783C358.953 269.416 350.78 272.803 344.213 275.524C340.576 277.031 336.815 278.59 335.144 280.259C333.473 281.929 331.915 285.691 330.408 289.327C327.687 295.894 324.3 304.067 316.667 308.483C309.127 312.845 300.779 311.768 293.415 310.815C289.453 310.304 285.357 309.775 282.969 310.412C280.815 310.988 277.659 313.412 274.606 315.757C268.914 320.13 261.83 325.572 252.836 325.572Z" fill="#FF0B57"/>
<path d="M291.043 305.434H252.346V468.654L282.96 488.636C284.213 489.454 285.663 489.918 287.158 489.979C288.653 490.041 290.136 489.697 291.452 488.985C292.767 488.272 293.866 487.218 294.632 485.933C295.397 484.648 295.801 483.179 295.801 481.683V310.192C295.801 309.567 295.678 308.948 295.439 308.371C295.2 307.794 294.85 307.269 294.408 306.828C293.966 306.386 293.441 306.035 292.864 305.796C292.287 305.557 291.668 305.434 291.043 305.434Z" fill="#FF0B57"/>
<path d="M252.346 305.434H213.648C213.023 305.434 212.405 305.557 211.827 305.796C211.25 306.035 210.726 306.386 210.284 306.828C209.842 307.269 209.492 307.794 209.252 308.371C209.013 308.948 208.89 309.567 208.89 310.192V481.683C208.89 483.179 209.295 484.647 210.06 485.933C210.826 487.218 211.924 488.272 213.24 488.985C214.556 489.697 216.039 490.041 217.534 489.979C219.029 489.918 220.479 489.454 221.732 488.636L252.346 468.654V305.434ZM258.687 302.276L284.483 291.188L331.249 399.992L316.567 422.084C315.966 422.988 315.132 423.713 314.153 424.182C313.175 424.651 312.087 424.847 311.006 424.75C309.925 424.652 308.891 424.263 308.012 423.626C307.133 422.989 306.443 422.126 306.015 421.129L256.878 306.811C256.699 306.394 256.604 305.947 256.598 305.493C256.592 305.04 256.675 304.59 256.843 304.169C257.011 303.748 257.261 303.364 257.577 303.039C257.893 302.714 258.27 302.455 258.687 302.276Z" fill="#B70445"/>
<path d="M284.483 291.188L310.279 280.101C310.696 279.922 311.143 279.826 311.597 279.82C312.05 279.814 312.5 279.898 312.921 280.066C313.342 280.234 313.726 280.483 314.051 280.799C314.376 281.115 314.635 281.492 314.814 281.909L363.95 396.227C364.379 397.224 364.53 398.318 364.388 399.395C364.246 400.471 363.815 401.488 363.143 402.34C362.47 403.192 361.579 403.846 360.565 404.233C359.551 404.621 358.451 404.727 357.382 404.541L331.249 399.992L284.483 291.188ZM246.005 302.276L220.208 291.188L173.442 399.992L188.124 422.084C188.725 422.988 189.559 423.713 190.538 424.182C191.517 424.651 192.604 424.847 193.685 424.75C194.766 424.652 195.801 424.263 196.679 423.626C197.558 422.989 198.248 422.126 198.677 421.129L247.813 306.811C247.992 306.394 248.087 305.947 248.093 305.493C248.099 305.04 248.016 304.59 247.848 304.169C247.68 303.748 247.431 303.364 247.115 303.039C246.798 302.714 246.421 302.455 246.005 302.276Z" fill="#FF0B57"/>
<path d="M220.208 291.188L194.412 280.101C193.996 279.922 193.548 279.826 193.095 279.82C192.641 279.814 192.191 279.898 191.77 280.066C191.349 280.234 190.965 280.483 190.64 280.799C190.316 281.115 190.056 281.492 189.877 281.909L140.741 396.227C140.313 397.224 140.161 398.318 140.304 399.395C140.446 400.471 140.876 401.488 141.549 402.34C142.222 403.192 143.112 403.846 144.126 404.233C145.14 404.621 146.24 404.727 147.309 404.541L173.442 399.992L220.208 291.188Z" fill="#B70445"/>
<path d="M301.951 112.646H203.426L154.163 197.971L203.426 283.296H301.951L351.213 197.971L301.951 112.646Z" fill="#000C33"/>
<path d="M294.236 126.008L309.665 99.284H195.711L211.14 126.008H294.236Z" fill="#DEEEEB"/>
<path d="M335.784 197.971H366.642L309.665 99.284L294.236 126.008L335.784 197.971Z" fill="#5DC8C1"/>
<path d="M335.784 197.971L294.236 269.934L309.665 296.658L366.642 197.971H335.784Z" fill="#A4F9EE"/>
<path d="M211.14 269.934L195.711 296.658H309.665L294.236 269.934H211.14Z" fill="#5DC8C1"/>
<path d="M169.592 197.971H138.735L195.711 296.658L211.14 269.934L169.592 197.971Z" fill="#DEEEEB"/>
<path d="M211.14 126.008L195.711 99.284L138.735 197.971H169.592L211.14 126.008Z" fill="#5DC8C1"/>
<path d="M252.371 257.039C285.006 257.039 311.462 230.583 311.462 197.948C311.462 165.313 285.006 138.857 252.371 138.857C219.736 138.857 193.28 165.313 193.28 197.948C193.28 230.583 219.736 257.039 252.371 257.039Z" fill="#000C33"/>
<path d="M210.774 198.178L187.1 230.517C186.488 231.339 186.131 232.322 186.076 233.345C186.02 234.368 186.268 235.385 186.788 236.267L252.761 198.177L210.774 198.178Z" fill="#C9E9E5"/>
<path d="M186.788 160.089C186.268 160.971 186.02 161.988 186.076 163.011C186.131 164.034 186.488 165.018 187.1 165.839L210.774 198.178H252.761L186.788 160.089Z" fill="#5DC8C1"/>
<path d="M252.798 198.115L252.765 121.999C251.74 121.989 250.735 122.283 249.876 122.842C249.017 123.402 248.343 124.202 247.938 125.144L231.768 161.816L252.761 198.178L252.798 198.115Z" fill="#5DC8C1"/>
<path d="M252.761 198.178L252.798 198.157V198.115L252.761 198.178Z" fill="#5DC8C1"/>
<path d="M231.768 161.816L191.924 157.484C190.907 157.364 189.876 157.547 188.963 158.011C188.049 158.474 187.293 159.197 186.788 160.089L252.761 198.178L231.768 161.816Z" fill="#C9E9E5"/>
<path d="M252.798 198.178V198.157L252.761 198.178H252.798Z" fill="#5DC8C1"/>
<path d="M252.798 198.199V198.178H252.761L252.798 198.199Z" fill="#5DC8C1"/>
<path d="M252.798 198.241V198.199L252.761 198.178L252.798 198.241Z" fill="#5DC8C1"/>
<path d="M252.761 198.178L231.768 234.54L247.938 271.212C248.348 272.163 249.033 272.971 249.904 273.53C250.776 274.089 251.795 274.376 252.831 274.352L252.798 198.241L252.761 198.178Z" fill="#C9E9E5"/>
<path d="M186.788 236.267C187.293 237.159 188.049 237.882 188.963 238.346C189.876 238.809 190.906 238.992 191.924 238.873L231.768 234.54L252.761 198.178L186.788 236.267ZM252.83 274.352C253.843 274.349 254.832 274.05 255.677 273.493C256.521 272.935 257.185 272.142 257.585 271.212L273.755 234.54L252.798 198.241L252.83 274.352Z" fill="#5DC8C1"/>
<path d="M252.798 198.241L273.755 234.54L313.599 238.873C314.616 238.992 315.646 238.809 316.56 238.346C317.474 237.882 318.23 237.159 318.734 236.268L252.798 198.199V198.241ZM273.755 161.816L257.585 125.144C257.18 124.204 256.507 123.404 255.65 122.844C254.792 122.285 253.789 121.991 252.765 121.999L252.798 198.115L273.755 161.816Z" fill="#C9E9E5"/>
<path d="M252.798 198.157L318.734 160.089C318.23 159.197 317.473 158.474 316.56 158.01C315.646 157.547 314.616 157.364 313.599 157.484L273.755 161.816L252.798 198.115V198.157Z" fill="#5DC8C1"/>
<path d="M252.798 198.157V198.178H294.748L318.422 165.839C319.035 165.017 319.391 164.034 319.447 163.011C319.502 161.988 319.254 160.971 318.734 160.089L252.798 198.157Z" fill="#C9E9E5"/>
<path d="M252.798 198.199L318.734 236.268C319.254 235.385 319.502 234.368 319.447 233.346C319.391 232.323 319.035 231.339 318.422 230.518L294.749 198.178H252.798V198.199Z" fill="#5DC8C1"/>
<path d="M252.694 217.349C263.247 217.349 271.802 208.794 271.802 198.241C271.802 187.688 263.247 179.133 252.694 179.133C242.141 179.133 233.586 187.688 233.586 198.241C233.586 208.794 242.141 217.349 252.694 217.349Z" fill="#5DC8C1"/>
<path d="M108.232 283.296L176.214 244.047L152.945 222.217L108.232 283.296Z" fill="#5DC8C1"/>
<path d="M183.485 275.113L176.214 244.047L108.232 283.296L183.485 275.113Z" fill="#DEEEEB"/>
<path d="M350.882 169.544L388.989 117.489L329.869 151.622L350.882 169.544Z" fill="#5DC8C1"/>
<path d="M329.869 151.622L388.989 117.489L324.854 124.463L329.869 151.622Z" fill="#DEEEEB"/>
<path d="M154.073 172.928L176.778 152.075L111.011 114.105L154.073 172.928Z" fill="#5DC8C1"/>
<path d="M111.011 114.105L176.778 152.075L183.485 121.986L111.011 114.105Z" fill="#DEEEEB"/>
<path d="M352.01 222.534L330.433 241.434L391.768 276.846L352.01 222.534Z" fill="#A4F9EE"/>
<path d="M391.768 276.846L330.433 241.434L324.854 269.569L391.768 276.846Z" fill="#5DC8C1"/>
<path d="M256.144 12.0565L268.036 36.1518L294.627 40.0157C295.308 40.1147 295.948 40.4023 296.474 40.846C297.001 41.2897 297.392 41.8718 297.605 42.5265C297.818 43.1812 297.843 43.8823 297.678 44.5506C297.513 45.2189 297.165 45.8278 296.672 46.3083L277.43 65.0636L281.972 91.5469C282.089 92.2253 282.013 92.9228 281.754 93.5605C281.494 94.1981 281.062 94.7505 280.505 95.1551C279.948 95.5597 279.289 95.8004 278.602 95.85C277.916 95.8997 277.229 95.7562 276.62 95.4359L252.836 82.9322L229.053 95.4359C228.443 95.7562 227.756 95.8996 227.07 95.85C226.383 95.8003 225.724 95.5596 225.167 95.155C224.611 94.7504 224.178 94.198 223.919 93.5604C223.659 92.9228 223.584 92.2253 223.7 91.5469L228.242 65.0636L209.001 46.3081C208.508 45.8276 208.159 45.2187 207.994 44.5504C207.829 43.8821 207.854 43.1809 208.067 42.5263C208.28 41.8716 208.672 41.2895 209.198 40.8458C209.724 40.4021 210.364 40.1145 211.045 40.0155L237.636 36.1516L249.528 12.0565C249.833 11.4392 250.304 10.9194 250.888 10.556C251.473 10.1925 252.148 9.99994 252.836 9.99994C253.524 9.99994 254.199 10.1925 254.784 10.556C255.368 10.9194 255.84 11.4392 256.144 12.0565Z" fill="#A2D4CB"/>
<path d="M268.036 36.1518L256.144 12.0565C255.844 11.436 255.373 10.9134 254.788 10.5494C254.202 10.1854 253.526 9.99491 252.836 9.99998V55.6187L268.036 36.1518Z" fill="#C9E9E5"/>
<path d="M277.43 65.0636L296.671 46.3079C297.162 45.8366 297.511 45.2373 297.678 44.5779C297.846 43.9185 297.825 43.2254 297.619 42.577L252.836 55.6185L277.43 65.0636ZM280.516 95.1465L252.836 55.6185V82.9322L276.62 95.4359C277.23 95.7622 277.92 95.9082 278.61 95.857C279.3 95.8057 279.961 95.5593 280.516 95.1465Z" fill="#C9E9E5"/>
<path d="M252.836 55.6185L228.242 65.0636L223.7 91.5469C223.579 92.2232 223.651 92.9201 223.909 93.557C224.167 94.194 224.599 94.7451 225.156 95.1469L252.836 55.6185ZM208.053 42.5771L252.836 55.6185L237.636 36.1516L211.045 40.0157C210.353 40.1112 209.704 40.4034 209.173 40.8575C208.643 41.3115 208.254 41.9084 208.052 42.5771H208.053Z" fill="#C9E9E5"/>
<path d="M185.813 40.2528L194.185 57.2157L212.905 59.9357C213.385 60.0054 213.835 60.2079 214.206 60.5203C214.576 60.8326 214.852 61.2424 215.002 61.7033C215.152 62.1642 215.169 62.6578 215.053 63.1283C214.937 63.5988 214.692 64.0275 214.345 64.3657L200.798 77.5693L203.996 96.2133C204.078 96.6909 204.025 97.182 203.842 97.6308C203.659 98.0797 203.355 98.4686 202.963 98.7534C202.571 99.0382 202.107 99.2077 201.624 99.2427C201.14 99.2776 200.657 99.1766 200.228 98.9511L183.484 90.1486L166.741 98.9511C166.312 99.1766 165.829 99.2775 165.345 99.2426C164.862 99.2076 164.398 99.0382 164.006 98.7533C163.614 98.4685 163.31 98.0797 163.127 97.6308C162.944 97.1819 162.891 96.6909 162.973 96.2133L166.171 77.5693L152.625 64.3656C152.278 64.0274 152.032 63.5987 151.916 63.1282C151.8 62.6577 151.818 62.1641 151.968 61.7032C152.117 61.2423 152.393 60.8325 152.764 60.5202C153.134 60.2078 153.585 60.0053 154.064 59.9356L172.784 57.2156L181.156 40.2528C181.371 39.8184 181.702 39.4526 182.114 39.1968C182.525 38.9411 183 38.8055 183.485 38.8055C183.969 38.8055 184.444 38.9411 184.856 39.1968C185.267 39.4526 185.599 39.8184 185.813 40.2528Z" fill="#A2D4CB"/>
<path d="M194.185 57.2157L185.813 40.2528C185.602 39.816 185.271 39.4481 184.859 39.1919C184.446 38.9356 183.97 38.8015 183.485 38.8051V70.92L194.185 57.2157Z" fill="#C9E9E5"/>
<path d="M200.798 77.5693L214.344 64.3655C214.689 64.0337 214.935 63.6118 215.053 63.1475C215.171 62.6833 215.157 62.1953 215.012 61.7389L183.484 70.92L200.798 77.5693ZM202.971 98.7474L183.484 70.92V90.1486L200.228 98.9511C200.657 99.1808 201.143 99.2837 201.629 99.2476C202.114 99.2115 202.58 99.038 202.971 98.7474ZM183.484 70.92L166.171 77.5693L162.973 96.2133C162.888 96.6894 162.939 97.1799 163.12 97.6282C163.302 98.0766 163.606 98.4645 163.998 98.7474L183.484 70.92ZM151.957 61.739L183.484 70.92L172.784 57.2156L154.064 59.9356C153.577 60.0028 153.119 60.2085 152.746 60.5282C152.373 60.8478 152.099 61.268 151.957 61.7388V61.739Z" fill="#C9E9E5"/>
<path d="M321.783 40.2528L330.155 57.2157L348.875 59.9357C349.354 60.0053 349.805 60.2077 350.175 60.5201C350.546 60.8324 350.822 61.2422 350.972 61.7031C351.121 62.164 351.139 62.6577 351.023 63.1282C350.907 63.5987 350.662 64.0274 350.315 64.3657L336.768 77.5693L339.966 96.2133C340.047 96.6909 339.994 97.182 339.812 97.6308C339.629 98.0797 339.324 98.4686 338.932 98.7534C338.54 99.0382 338.076 99.2077 337.593 99.2427C337.11 99.2776 336.626 99.1766 336.197 98.9511L319.454 90.1486L302.711 98.9511C302.282 99.1766 301.798 99.2776 301.315 99.2427C300.831 99.2077 300.368 99.0382 299.976 98.7534C299.583 98.4686 299.279 98.0797 299.096 97.6308C298.914 97.182 298.86 96.6909 298.942 96.2133L302.14 77.5693L288.594 64.3656C288.247 64.0274 288.002 63.5987 287.886 63.1282C287.769 62.6577 287.787 62.1641 287.937 61.7032C288.087 61.2423 288.363 60.8325 288.733 60.5201C289.104 60.2077 289.554 60.0053 290.034 59.9356L308.754 57.2156L317.125 40.2528C317.34 39.8184 317.672 39.4526 318.083 39.1968C318.495 38.9411 318.97 38.8055 319.454 38.8055C319.939 38.8055 320.414 38.9411 320.825 39.1968C321.237 39.4526 321.568 39.8184 321.783 40.2528Z" fill="#A2D4CB"/>
<path d="M330.154 57.2157L321.783 40.2528C321.571 39.816 321.24 39.4481 320.828 39.1919C320.416 38.9357 319.939 38.8015 319.454 38.8051V70.92L330.154 57.2157Z" fill="#C9E9E5"/>
<path d="M336.768 77.5693L350.313 64.3655C350.659 64.0337 350.904 63.6118 351.022 63.1475C351.14 62.6833 351.126 62.1953 350.981 61.7389L319.454 70.92L336.768 77.5693ZM338.94 98.7474L319.454 70.92V90.1486L336.197 98.9511C336.627 99.1808 337.112 99.2837 337.598 99.2476C338.084 99.2115 338.549 99.038 338.94 98.7474ZM319.454 70.92L302.14 77.5693L298.942 96.2133C298.857 96.6894 298.908 97.1798 299.09 97.6282C299.271 98.0765 299.575 98.4645 299.968 98.7474L319.454 70.92ZM287.927 61.739L319.454 70.92L308.754 57.2156L290.034 59.9356C289.547 60.0028 289.089 60.2085 288.716 60.5282C288.342 60.8478 288.069 61.268 287.927 61.7388V61.739Z" fill="#C9E9E5"/>
</svg>
