<svg width="500" height="500" viewBox="0 0 500 500" fill="none" xmlns="http://www.w3.org/2000/svg">
<path d="M252.836 336.783C243.053 336.783 235.346 330.863 229.152 326.107C225.831 323.557 222.397 320.918 220.053 320.292C217.454 319.596 212.997 320.172 208.687 320.73C200.676 321.764 191.596 322.938 183.394 318.192C175.089 313.386 171.406 304.496 168.445 297.352C166.805 293.395 165.11 289.303 163.293 287.487C161.476 285.669 157.385 283.974 153.428 282.335C146.285 279.375 137.395 275.691 132.59 267.388C127.845 259.185 129.017 250.105 130.053 242.094C130.61 237.784 131.186 233.327 130.492 230.73C129.865 228.386 127.228 224.952 124.678 221.632C119.921 215.437 114.001 207.731 114.001 197.948C114.001 188.164 119.921 180.458 124.677 174.264C127.228 170.943 129.865 167.509 130.492 165.165C131.187 162.567 130.611 158.11 130.054 153.8C129.019 145.788 127.846 136.709 132.592 128.505C137.397 120.202 146.288 116.517 153.432 113.557C157.389 111.917 161.48 110.222 163.297 108.406C165.114 106.589 166.81 102.497 168.449 98.5412C171.409 91.398 175.093 82.5069 183.398 77.7032C191.601 72.9565 200.681 74.1298 208.691 75.1664C213.001 75.7225 217.458 76.2985 220.056 75.605C222.399 74.9785 225.833 72.3413 229.154 69.7903C235.346 65.0322 243.054 59.1128 252.837 59.1128C262.62 59.1128 270.327 65.0322 276.52 69.7889C279.842 72.3389 283.276 74.977 285.619 75.6036C288.217 76.2992 292.674 75.7218 296.985 75.1657C304.996 74.1319 314.076 72.9579 322.279 77.7039C330.583 82.509 334.267 91.3994 337.228 98.5439C338.868 102.501 340.563 106.593 342.379 108.409C344.196 110.225 348.288 111.922 352.245 113.561C359.388 116.521 368.278 120.205 373.083 128.508C377.829 136.711 376.655 145.79 375.62 153.802C375.063 158.112 374.487 162.568 375.182 165.166C375.808 167.51 378.445 170.944 380.996 174.264C385.752 180.459 391.672 188.165 391.672 197.948C391.672 207.732 385.752 215.438 380.995 221.632C378.444 224.953 375.807 228.387 375.18 230.731C374.485 233.329 375.061 237.786 375.618 242.096C376.653 250.107 377.826 259.187 373.08 267.391C368.275 275.694 359.384 279.379 352.24 282.339C348.284 283.979 344.192 285.674 342.374 287.49C340.557 289.306 338.862 293.399 337.223 297.355C334.263 304.498 330.578 313.389 322.274 318.193C314.071 322.939 304.991 321.766 296.98 320.73C292.67 320.174 288.214 319.598 285.616 320.292C283.273 320.918 279.839 323.555 276.518 326.106C270.327 330.863 262.62 336.783 252.837 336.783H252.836Z" fill="#269761"/>
<path d="M252.836 325.572C243.843 325.572 236.758 320.13 231.065 315.758C228.012 313.414 224.855 310.989 222.701 310.413C220.311 309.773 216.214 310.303 212.252 310.815C204.888 311.766 196.542 312.845 189.001 308.482C181.367 304.065 177.981 295.892 175.26 289.325C173.752 285.688 172.194 281.926 170.524 280.257C168.854 278.587 165.092 277.028 161.455 275.521C154.889 272.8 146.716 269.413 142.3 261.781C137.938 254.241 139.016 245.894 139.968 238.53C140.48 234.568 141.009 230.47 140.371 228.083C139.795 225.928 137.371 222.772 135.027 219.719C130.654 214.025 125.212 206.941 125.212 197.948C125.212 188.955 130.653 181.87 135.026 176.177C137.371 173.124 139.795 169.967 140.371 167.812C141.01 165.424 140.481 161.327 139.969 157.365C139.017 150 137.939 141.654 142.302 134.113C146.718 126.48 154.892 123.093 161.459 120.372C165.096 118.865 168.857 117.306 170.527 115.636C172.197 113.967 173.756 110.205 175.263 106.568C177.984 100.002 181.371 91.8284 189.005 87.413C196.545 83.0496 204.892 84.1281 212.256 85.0811C216.218 85.5922 220.314 86.1217 222.703 85.4842C224.856 84.9083 228.013 82.4842 231.066 80.1391C236.758 75.7652 243.843 70.3238 252.836 70.3238C261.83 70.3238 268.914 75.7652 274.608 80.1378C277.661 82.4821 280.818 84.907 282.972 85.4829C285.359 86.1223 289.457 85.5916 293.419 85.0804C300.784 84.1304 309.131 83.0509 316.671 87.4136C324.305 91.8307 327.691 100.004 330.413 106.57C331.92 110.208 333.478 113.969 335.148 115.639C336.819 117.308 340.58 118.868 344.217 120.375C350.784 123.095 358.956 126.482 363.372 134.115C367.735 141.655 366.657 150.002 365.705 157.366C365.193 161.328 364.664 165.424 365.302 167.813C365.878 169.967 368.302 173.124 370.647 176.176C375.019 181.87 380.46 188.954 380.46 197.948C380.46 206.941 375.019 214.026 370.646 219.719C368.301 222.772 365.877 225.929 365.301 228.083C364.662 230.472 365.191 234.569 365.703 238.53C366.655 245.895 367.733 254.242 363.37 261.783C358.953 269.416 350.78 272.803 344.213 275.524C340.576 277.031 336.815 278.59 335.144 280.259C333.473 281.929 331.915 285.691 330.408 289.327C327.687 295.894 324.3 304.067 316.667 308.483C309.127 312.845 300.779 311.768 293.415 310.815C289.453 310.304 285.357 309.775 282.969 310.412C280.815 310.988 277.659 313.412 274.606 315.757C268.914 320.13 261.83 325.572 252.836 325.572Z" fill="#44E799"/>
<path d="M291.043 305.434H252.346V468.654L282.96 488.636C284.213 489.454 285.663 489.918 287.158 489.979C288.653 490.041 290.136 489.697 291.452 488.985C292.767 488.272 293.866 487.218 294.632 485.933C295.397 484.648 295.801 483.179 295.801 481.683V310.192C295.801 309.567 295.678 308.948 295.439 308.371C295.2 307.794 294.85 307.269 294.408 306.828C293.966 306.386 293.441 306.035 292.864 305.796C292.287 305.557 291.668 305.434 291.043 305.434Z" fill="#44E799"/>
<path d="M252.346 305.434H213.648C213.023 305.434 212.405 305.557 211.827 305.796C211.25 306.035 210.726 306.386 210.284 306.828C209.842 307.269 209.492 307.794 209.252 308.371C209.013 308.948 208.89 309.567 208.89 310.192V481.683C208.89 483.179 209.295 484.647 210.06 485.933C210.826 487.218 211.924 488.272 213.24 488.985C214.556 489.697 216.039 490.041 217.534 489.979C219.029 489.918 220.479 489.454 221.732 488.636L252.346 468.654V305.434ZM258.687 302.276L284.483 291.188L331.249 399.992L316.567 422.084C315.966 422.988 315.132 423.713 314.153 424.182C313.175 424.651 312.087 424.847 311.006 424.75C309.925 424.652 308.891 424.263 308.012 423.626C307.133 422.989 306.443 422.126 306.015 421.129L256.878 306.811C256.699 306.394 256.604 305.947 256.598 305.493C256.592 305.04 256.675 304.59 256.843 304.169C257.011 303.748 257.261 303.364 257.577 303.039C257.893 302.714 258.27 302.455 258.687 302.276Z" fill="#269761"/>
<path d="M284.483 291.188L310.279 280.101C310.696 279.922 311.143 279.826 311.597 279.82C312.05 279.814 312.5 279.898 312.921 280.066C313.342 280.234 313.726 280.483 314.051 280.799C314.376 281.115 314.635 281.492 314.814 281.909L363.95 396.227C364.379 397.224 364.53 398.318 364.388 399.395C364.246 400.471 363.815 401.488 363.143 402.34C362.47 403.192 361.579 403.846 360.565 404.233C359.551 404.621 358.451 404.727 357.382 404.541L331.249 399.992L284.483 291.188ZM246.005 302.276L220.208 291.188L173.442 399.992L188.124 422.084C188.725 422.988 189.559 423.713 190.538 424.182C191.517 424.651 192.604 424.847 193.685 424.75C194.766 424.652 195.801 424.263 196.679 423.626C197.558 422.989 198.248 422.126 198.677 421.129L247.813 306.811C247.992 306.394 248.087 305.947 248.093 305.493C248.099 305.04 248.016 304.59 247.848 304.169C247.68 303.748 247.431 303.364 247.115 303.039C246.798 302.714 246.421 302.455 246.005 302.276Z" fill="#44E799"/>
<path d="M220.208 291.188L194.412 280.101C193.996 279.922 193.548 279.826 193.095 279.82C192.641 279.814 192.191 279.898 191.77 280.066C191.349 280.234 190.965 280.483 190.64 280.799C190.316 281.115 190.056 281.492 189.877 281.909L140.741 396.227C140.313 397.224 140.161 398.318 140.304 399.395C140.446 400.471 140.876 401.488 141.549 402.34C142.222 403.192 143.112 403.846 144.126 404.233C145.14 404.621 146.24 404.727 147.309 404.541L173.442 399.992L220.208 291.188Z" fill="#269761"/>
<path d="M301.951 112.646H203.426L154.163 197.971L203.426 283.296H301.951L351.213 197.971L301.951 112.646Z" fill="#000C33"/>
<path d="M294.236 126.008L309.665 99.284H195.711L211.14 126.008H294.236Z" fill="#3FCDC5"/>
<path d="M335.784 197.971H366.642L309.665 99.284L294.236 126.008L335.784 197.971Z" fill="#0B7B82"/>
<path d="M335.784 197.971L294.236 269.934L309.665 296.658L366.642 197.971H335.784Z" fill="#0DA8B1"/>
<path d="M211.14 269.934L195.711 296.658H309.665L294.236 269.934H211.14Z" fill="#0B7B82"/>
<path d="M169.592 197.971H138.735L195.711 296.658L211.14 269.934L169.592 197.971Z" fill="#3FCDC5"/>
<path d="M211.14 126.008L195.711 99.284L138.735 197.971H169.592L211.14 126.008Z" fill="#C4F2EA"/>
<path d="M252.371 257.039C285.006 257.039 311.462 230.583 311.462 197.948C311.462 165.313 285.006 138.857 252.371 138.857C219.736 138.857 193.28 165.313 193.28 197.948C193.28 230.583 219.736 257.039 252.371 257.039Z" fill="#000C33"/>
<path d="M210.774 198.178L187.1 230.517C186.488 231.339 186.131 232.322 186.076 233.345C186.02 234.368 186.268 235.385 186.788 236.267L252.761 198.177L210.774 198.178Z" fill="#46C5BD"/>
<path d="M186.788 160.089C186.268 160.971 186.02 161.988 186.076 163.011C186.131 164.034 186.488 165.018 187.1 165.839L210.774 198.178H252.761L186.788 160.089Z" fill="#C4F2EA"/>
<path d="M252.798 198.115L252.765 121.999C251.74 121.989 250.735 122.283 249.876 122.842C249.017 123.402 248.343 124.202 247.938 125.144L231.768 161.816L252.761 198.178L252.798 198.115Z" fill="#C4F2EA"/>
<path d="M252.761 198.178L252.798 198.157V198.115L252.761 198.178Z" fill="#C4F2EA"/>
<path d="M231.768 161.816L191.924 157.484C190.907 157.364 189.876 157.547 188.963 158.011C188.049 158.474 187.293 159.197 186.788 160.089L252.761 198.178L231.768 161.816Z" fill="#46C5BD"/>
<path d="M252.798 198.178V198.157L252.761 198.178H252.798Z" fill="#C4F2EA"/>
<path d="M252.798 198.199V198.178H252.761L252.798 198.199Z" fill="#C4F2EA"/>
<path d="M252.798 198.241V198.199L252.761 198.178L252.798 198.241Z" fill="#C4F2EA"/>
<path d="M252.761 198.178L231.768 234.54L247.938 271.212C248.348 272.163 249.033 272.971 249.904 273.53C250.776 274.089 251.795 274.376 252.831 274.352L252.798 198.241L252.761 198.178Z" fill="#46C5BD"/>
<path d="M186.788 236.267C187.293 237.159 188.049 237.882 188.963 238.346C189.876 238.809 190.906 238.992 191.924 238.873L231.768 234.54L252.761 198.178L186.788 236.267ZM252.83 274.352C253.843 274.349 254.832 274.05 255.677 273.493C256.521 272.935 257.185 272.142 257.585 271.212L273.755 234.54L252.798 198.241L252.83 274.352Z" fill="#C4F2EA"/>
<path d="M252.798 198.241L273.755 234.54L313.599 238.873C314.616 238.992 315.646 238.809 316.56 238.346C317.474 237.882 318.23 237.159 318.734 236.268L252.798 198.199V198.241ZM273.755 161.816L257.585 125.144C257.18 124.204 256.507 123.404 255.65 122.844C254.792 122.285 253.789 121.991 252.765 121.999L252.798 198.115L273.755 161.816Z" fill="#46C5BD"/>
<path d="M252.798 198.157L318.734 160.089C318.23 159.197 317.473 158.474 316.56 158.01C315.646 157.547 314.616 157.364 313.599 157.484L273.755 161.816L252.798 198.115V198.157Z" fill="#C4F2EA"/>
<path d="M252.798 198.157V198.178H294.748L318.422 165.839C319.035 165.017 319.391 164.034 319.447 163.011C319.502 161.988 319.254 160.971 318.734 160.089L252.798 198.157Z" fill="#46C5BD"/>
<path d="M252.798 198.199L318.734 236.268C319.254 235.385 319.502 234.368 319.447 233.346C319.391 232.323 319.035 231.339 318.422 230.518L294.749 198.178H252.798V198.199Z" fill="#C4F2EA"/>
<path d="M108.232 283.296L176.214 244.047L152.945 222.217L108.232 283.296Z" fill="#C4F2EA"/>
<path d="M183.485 275.113L176.214 244.047L108.232 283.296L183.485 275.113Z" fill="#3FCDC5"/>
<path d="M350.882 169.544L388.989 117.489L329.869 151.622L350.882 169.544Z" fill="#0B7B82"/>
<path d="M329.869 151.622L388.989 117.489L324.854 124.463L329.869 151.622Z" fill="#3FCDC5"/>
<path d="M154.073 172.928L176.778 152.075L111.011 114.105L154.073 172.928Z" fill="#C4F2EA"/>
<path d="M111.011 114.105L176.778 152.075L183.485 121.986L111.011 114.105Z" fill="#3FCDC5"/>
<path d="M352.01 222.534L330.433 241.434L391.768 276.846L352.01 222.534Z" fill="#0DA8B1"/>
<path d="M391.768 276.846L330.433 241.434L324.854 269.569L391.768 276.846Z" fill="#0B7B82"/>
<path d="M221.579 31.6082L229.398 47.7466L247.125 50.455C247.58 50.5244 248.005 50.7195 248.354 51.0182C248.703 51.3168 248.962 51.7072 249.101 52.1451C249.24 52.5831 249.252 53.0511 249.139 53.4964C249.026 53.9416 248.791 54.3463 248.459 54.6645L235.526 67.087L238.428 84.7831C238.502 85.2364 238.449 85.7016 238.272 86.1258C238.095 86.55 237.804 86.9166 237.431 87.1839C237.057 87.4511 236.616 87.6086 236.158 87.6384C235.699 87.6681 235.242 87.569 234.837 87.3523L219.025 78.8916L203.092 87.1199C202.684 87.3307 202.225 87.423 201.767 87.3865C201.309 87.35 200.871 87.1862 200.501 86.9134C200.131 86.6407 199.846 86.27 199.676 85.8432C199.505 85.4164 199.458 84.9506 199.539 84.4984L202.7 66.8467L189.951 54.236C189.624 53.913 189.394 53.5049 189.287 53.0581C189.181 52.6112 189.201 52.1434 189.347 51.7076C189.491 51.2717 189.755 50.8851 190.109 50.5916C190.462 50.2981 190.891 50.1092 191.346 50.0465L209.111 47.5979L217.165 31.5759C217.371 31.1656 217.688 30.8211 218.08 30.5815C218.471 30.3419 218.923 30.2167 219.382 30.2201C219.841 30.2234 220.291 30.3553 220.679 30.6005C221.067 30.8459 221.379 31.1949 221.579 31.6082Z" fill="#C3E3E6"/>
<path d="M235.526 67.087L248.458 54.6642C248.788 54.3521 249.024 53.9539 249.139 53.5145C249.254 53.0753 249.244 52.6126 249.11 52.1789L219.159 60.6635L235.526 67.087ZM237.439 87.1782L219.159 60.6635L219.025 78.8916L234.837 87.3523C235.242 87.573 235.702 87.6739 236.163 87.6431C236.623 87.6122 237.066 87.451 237.439 87.1782ZM219.159 60.6635L202.7 66.8467L199.539 84.4984C199.455 84.9491 199.5 85.4144 199.669 85.8406C199.838 86.267 200.124 86.6368 200.493 86.9077L219.159 60.6635ZM189.336 51.7414L219.159 60.6635L209.111 47.5979L191.346 50.0465C190.884 50.1068 190.448 50.2986 190.092 50.5991C189.736 50.8995 189.474 51.2959 189.336 51.7412L189.336 51.7414Z" fill="#46C5BD"/>
<path d="M229.398 47.7466L221.579 31.6083C221.382 31.1927 221.071 30.8417 220.682 30.5959C220.293 30.3501 219.842 30.2197 219.382 30.2197L219.16 60.6636L229.398 47.7466Z" fill="#46C5BD"/>
<path d="M348.523 60.2581L355.798 74.9988L372.065 77.3625C372.482 77.4229 372.874 77.5988 373.195 77.8703C373.518 78.1417 373.757 78.4978 373.888 78.8983C374.017 79.2988 374.033 79.7279 373.932 80.1367C373.831 80.5456 373.618 80.9181 373.317 81.2121L361.545 92.686L364.324 108.888C364.394 109.303 364.348 109.729 364.19 110.119C364.031 110.509 363.766 110.847 363.425 111.095C363.084 111.342 362.681 111.49 362.261 111.52C361.842 111.55 361.421 111.463 361.048 111.267L346.499 103.617L331.949 111.267C331.576 111.463 331.156 111.55 330.736 111.52C330.315 111.49 329.913 111.342 329.572 111.095C329.231 110.847 328.967 110.509 328.808 110.119C328.65 109.729 328.603 109.303 328.674 108.888L331.453 92.686L319.682 81.212C319.38 80.9181 319.167 80.5456 319.066 80.1367C318.965 79.7279 318.98 79.2989 319.111 78.8984C319.241 78.4979 319.481 78.1418 319.802 77.8703C320.125 77.5988 320.516 77.4229 320.933 77.3624L337.2 74.9987L344.475 60.2581C344.662 59.8806 344.95 59.5628 345.307 59.3405C345.665 59.1183 346.078 59.0004 346.499 59.0004C346.92 59.0004 347.333 59.1183 347.69 59.3405C348.048 59.5628 348.336 59.8806 348.523 60.2581Z" fill="#C3E3E6"/>
<path d="M361.545 92.6859L373.315 81.2119C373.616 80.9236 373.829 80.5569 373.931 80.1534C374.034 79.7501 374.022 79.326 373.896 78.9294L346.499 86.9077L361.545 92.6859ZM363.432 111.09L346.499 86.9077V103.617L361.048 111.267C361.422 111.466 361.843 111.556 362.266 111.524C362.688 111.493 363.092 111.342 363.432 111.09ZM346.499 86.9077L331.453 92.6859L328.674 108.887C328.6 109.301 328.644 109.727 328.803 110.117C328.96 110.507 329.224 110.844 329.565 111.09L346.499 86.9077ZM319.102 78.9295L346.499 86.9077L337.2 74.9987L320.933 77.3623C320.51 77.4207 320.112 77.5995 319.788 77.8773C319.463 78.155 319.225 78.5202 319.102 78.9293V78.9295Z" fill="#46C5BD"/>
<path d="M355.797 74.9988L348.523 60.2581C348.338 59.8785 348.051 59.5588 347.693 59.3362C347.335 59.1136 346.92 58.9969 346.499 59.0001V86.9077L355.797 74.9988Z" fill="#46C5BD"/>
<path d="M293.206 32.3725L301.143 48.4532L318.89 51.0317C319.344 51.0977 319.771 51.2896 320.122 51.5857C320.474 51.8818 320.735 52.2703 320.877 52.7072C321.019 53.1442 321.036 53.6122 320.926 54.0582C320.816 54.5042 320.584 54.9106 320.255 55.2314L307.412 67.7483L310.444 85.4227C310.521 85.8755 310.47 86.341 310.298 86.7665C310.124 87.192 309.835 87.5607 309.464 87.8307C309.092 88.1007 308.652 88.2614 308.194 88.2946C307.736 88.3276 307.278 88.2319 306.871 88.0181L290.999 79.6734L275.126 88.0181C274.72 88.2319 274.261 88.3276 273.803 88.2946C273.344 88.2614 272.905 88.1007 272.534 87.8307C272.161 87.5607 271.873 87.192 271.699 86.7665C271.527 86.341 271.476 85.8755 271.553 85.4227L274.585 67.7483L261.744 55.2313C261.415 54.9106 261.182 54.5042 261.072 54.0582C260.961 53.6122 260.978 53.1443 261.121 52.7073C261.263 52.2704 261.525 51.8819 261.875 51.5857C262.227 51.2896 262.654 51.0977 263.109 51.0316L280.855 48.4531L288.791 32.3725C288.995 31.9607 289.309 31.6139 289.699 31.3714C290.09 31.129 290.54 31.0004 290.999 31.0004C291.458 31.0004 291.909 31.129 292.298 31.3714C292.689 31.6139 293.003 31.9607 293.206 32.3725Z" fill="#C3E3E6"/>
<path d="M307.412 67.7483L320.253 55.2311C320.581 54.9166 320.813 54.5166 320.925 54.0765C321.037 53.6364 321.023 53.1738 320.886 52.7411L290.999 61.4448L307.412 67.7483ZM309.471 87.825L290.999 61.4448V79.6734L306.871 88.0181C307.279 88.2358 307.738 88.3334 308.199 88.2992C308.66 88.2649 309.101 88.1005 309.471 87.825ZM290.999 61.4448L274.585 67.7483L271.553 85.4227C271.473 85.874 271.521 86.3389 271.694 86.764C271.865 87.189 272.153 87.5568 272.526 87.825L290.999 61.4448ZM261.111 52.7412L290.999 61.4448L280.855 48.4531L263.109 51.0316C262.647 51.0953 262.213 51.2903 261.859 51.5934C261.505 51.8964 261.246 52.2947 261.111 52.741V52.7412Z" fill="#46C5BD"/>
<path d="M301.142 48.4532L293.206 32.3725C293.006 31.9584 292.692 31.6096 292.301 31.3668C291.911 31.1239 291.458 30.9967 290.999 31.0001V61.4448L301.142 48.4532Z" fill="#46C5BD"/>
<path d="M165.523 58.2581L172.798 72.9988L189.065 75.3625C189.482 75.4229 189.874 75.5988 190.195 75.8703C190.518 76.1417 190.757 76.4978 190.888 76.8983C191.017 77.2988 191.033 77.7279 190.932 78.1367C190.831 78.5456 190.618 78.9181 190.317 79.2121L178.545 90.686L181.324 106.888C181.394 107.303 181.348 107.729 181.19 108.119C181.031 108.509 180.766 108.847 180.425 109.095C180.084 109.342 179.681 109.49 179.261 109.52C178.842 109.55 178.421 109.463 178.048 109.267L163.499 101.617L148.949 109.267C148.576 109.463 148.156 109.55 147.736 109.52C147.315 109.49 146.913 109.342 146.572 109.095C146.231 108.847 145.967 108.509 145.808 108.119C145.65 107.729 145.603 107.303 145.674 106.888L148.453 90.686L136.682 79.212C136.38 78.9181 136.167 78.5456 136.066 78.1367C135.965 77.7279 135.98 77.2989 136.111 76.8984C136.241 76.4979 136.481 76.1418 136.802 75.8703C137.125 75.5988 137.516 75.4229 137.933 75.3624L154.2 72.9987L161.475 58.2581C161.662 57.8806 161.95 57.5628 162.307 57.3405C162.665 57.1183 163.078 57.0004 163.499 57.0004C163.92 57.0004 164.333 57.1183 164.69 57.3405C165.048 57.5628 165.336 57.8806 165.523 58.2581Z" fill="#C3E3E6"/>
<path d="M178.545 90.6859L190.315 79.2119C190.616 78.9236 190.829 78.5569 190.931 78.1534C191.034 77.7501 191.022 77.326 190.896 76.9294L163.499 84.9077L178.545 90.6859ZM180.432 109.09L163.499 84.9077V101.617L178.048 109.267C178.422 109.466 178.843 109.556 179.266 109.524C179.688 109.493 180.092 109.342 180.432 109.09ZM163.499 84.9077L148.453 90.6859L145.674 106.887C145.6 107.301 145.644 107.727 145.803 108.117C145.96 108.507 146.224 108.844 146.565 109.09L163.499 84.9077ZM136.102 76.9295L163.499 84.9077L154.2 72.9987L137.933 75.3623C137.51 75.4207 137.112 75.5995 136.788 75.8773C136.463 76.155 136.225 76.5202 136.102 76.9293V76.9295Z" fill="#46C5BD"/>
<path d="M172.797 72.9988L165.523 58.2581C165.338 57.8785 165.051 57.5588 164.693 57.3362C164.335 57.1136 163.92 56.9969 163.499 57.0001V84.9077L172.797 72.9988Z" fill="#46C5BD"/>
</svg>
