<svg width="321" height="399" viewBox="0 0 321 399" fill="none" xmlns="http://www.w3.org/2000/svg">
<path d="M164 364.999C152.937 364.999 144.221 358.39 137.217 353.08C133.461 350.234 129.578 347.288 126.928 346.589C123.988 345.812 118.948 346.455 114.075 347.078C105.015 348.233 94.7476 349.543 85.4716 344.244C76.0806 338.879 71.9149 328.954 68.5672 320.978C66.7126 316.56 64.796 311.992 62.7414 309.964C60.6866 307.935 56.0596 306.042 51.5855 304.213C43.5076 300.908 33.454 296.795 28.021 287.525C22.6549 278.367 23.9809 268.23 25.1523 259.287C25.782 254.475 26.4333 249.499 25.6483 246.599C24.9398 243.982 21.9576 240.148 19.0736 236.441C13.6946 229.526 7 220.923 7 210C7 199.077 13.6938 190.473 19.0728 183.558C21.9576 179.851 24.9398 176.017 25.6483 173.4C26.4341 170.499 25.7828 165.524 25.1532 160.712C23.9825 151.768 22.6557 141.631 28.0234 132.472C33.4564 123.201 43.5109 119.088 51.5901 115.784C56.0642 113.953 60.6913 112.06 62.7459 110.032C64.8005 108.004 66.7176 103.436 68.5718 99.0191C71.9191 91.0442 76.0852 81.1179 85.4763 75.7549C94.7529 70.4555 105.021 71.7655 114.079 72.9227C118.953 73.5436 123.993 74.1867 126.931 73.4124C129.58 72.713 133.463 69.7687 137.219 66.9207C144.221 61.6086 152.937 55 164 55C175.063 55 183.779 61.6086 190.783 66.9191C194.539 69.766 198.422 72.7113 201.072 73.4109C204.009 74.1874 209.05 73.5428 213.925 72.922C222.984 71.7678 233.252 70.4571 242.528 75.7557C251.919 81.1203 256.085 91.0458 259.433 99.0221C261.287 103.44 263.204 108.008 265.259 110.036C267.313 112.064 271.94 113.958 276.414 115.787C284.492 119.092 294.546 123.205 299.979 132.475C305.346 141.633 304.019 151.77 302.848 160.714C302.219 165.525 301.567 170.501 302.352 173.401C303.061 176.018 306.043 179.852 308.928 183.559C314.306 190.474 321 199.078 321 210C321 220.923 314.306 229.527 308.927 236.442C306.042 240.149 303.06 243.983 302.351 246.6C301.565 249.501 302.216 254.476 302.846 259.288C304.017 268.233 305.343 278.37 299.976 287.528C294.543 296.799 284.488 300.912 276.41 304.216C271.936 306.047 267.309 307.94 265.253 309.968C263.197 311.996 261.281 316.565 259.427 320.981C256.08 328.956 251.914 338.882 242.523 344.245C233.247 349.544 222.978 348.235 213.92 347.078C209.046 346.457 204.006 345.814 201.068 346.588C198.419 347.288 194.536 350.232 190.78 353.08C183.779 358.391 175.063 365 164 365L164 364.999Z" fill="#E0CA01"/>
<path d="M163.5 352C153.318 352 145.296 345.924 138.85 341.042C135.393 338.424 131.819 335.717 129.379 335.074C126.674 334.36 122.035 334.951 117.55 335.523C109.212 336.585 99.7615 337.79 91.2241 332.918C82.5808 327.986 78.7469 318.861 75.6656 311.528C73.9589 307.467 72.1946 303.267 70.3034 301.403C68.4123 299.539 64.1537 297.797 60.0358 296.115C52.6011 293.077 43.3479 289.296 38.3474 280.774C33.4085 272.355 34.629 263.035 35.7072 254.812C36.2867 250.388 36.8862 245.814 36.1637 243.148C35.5116 240.742 32.767 237.217 30.1125 233.809C25.1617 227.451 19 219.542 19 209.5C19 199.458 25.1609 191.548 30.1117 185.191C32.7668 181.783 35.5116 178.257 36.1637 175.852C36.8869 173.185 36.2875 168.611 35.708 164.187C34.6305 155.964 33.4096 146.644 38.3497 138.225C43.3501 129.701 52.6045 125.92 60.0395 122.882C64.1574 121.199 68.4161 119.458 70.3072 117.594C72.1982 115.73 73.9627 111.529 75.6693 107.469C78.7504 100.138 82.5845 91.0112 91.2278 86.0811C99.7659 81.2091 109.216 82.4133 117.553 83.4774C122.04 84.0481 126.678 84.6393 129.382 83.9275C131.82 83.2845 135.394 80.5778 138.851 77.9594C145.296 73.0757 153.318 67 163.5 67C173.683 67 181.704 73.0757 188.15 77.9579C191.607 80.5755 195.181 83.283 197.621 83.9261C200.324 84.64 204.963 84.0474 209.45 83.4766C217.788 82.4159 227.239 81.2106 235.776 86.0818C244.419 91.0138 248.253 100.139 251.335 107.472C253.041 111.533 254.806 115.733 256.697 117.597C258.588 119.461 262.846 121.203 266.964 122.885C274.399 125.923 283.652 129.704 288.653 138.226C293.592 146.645 292.371 155.965 291.294 164.188C290.714 168.612 290.115 173.186 290.837 175.852C291.489 178.258 294.234 181.783 296.889 185.191C301.839 191.549 308 199.458 308 209.5C308 219.541 301.839 227.452 296.888 233.809C294.233 237.217 291.489 240.743 290.836 243.148C290.112 245.815 290.712 250.389 291.291 254.813C292.369 263.036 293.59 272.356 288.65 280.776C283.649 289.299 274.395 293.08 266.96 296.118C262.842 297.801 258.583 299.542 256.691 301.406C254.8 303.27 253.036 307.471 251.329 311.531C248.248 318.862 244.414 327.989 235.771 332.919C227.234 337.79 217.782 336.587 209.445 335.523C204.959 334.953 200.321 334.361 197.617 335.073C195.178 335.716 191.605 338.423 188.148 341.041C181.704 345.924 173.683 352 163.5 352V352Z" fill="#EBDC56"/>
<path d="M219.251 115H107.751L52 210L107.751 305H219.251L275 210L219.251 115Z" fill="#000C33"/>
<path d="M210.534 130L228 100H99L116.466 130H210.534Z" fill="#EFA459"/>
<path d="M258.053 209H293L228.473 99L211 128.788L258.053 209Z" fill="#E5893C"/>
<path d="M258.053 209L211 290.671L228.473 321L293 209H258.053Z" fill="#CC7629"/>
<path d="M116.466 290L99 320H228L210.534 290H116.466Z" fill="#E5893C"/>
<path d="M69.9461 210H35L99.5264 320L117 290.212L69.9461 210Z" fill="#EFA459"/>
<path d="M117 129.788L99.5264 100L35 210H69.9461L117 129.788Z" fill="#FFE8B6"/>
<path d="M163 276C200.003 276 230 246.451 230 210C230 173.549 200.003 144 163 144C125.997 144 96 173.549 96 210C96 246.451 125.997 276 163 276Z" fill="#000C33"/>
<path d="M116.154 210.001L89.1758 246.509C88.4779 247.436 88.0719 248.546 88.0087 249.701C87.9455 250.856 88.228 252.004 88.8206 253L164 210L116.154 210.001Z" fill="#F79F3E"/>
<path d="M88.8207 168C88.228 168.973 87.9455 170.094 88.0087 171.222C88.0719 172.35 88.478 173.435 89.176 174.34L116.154 210H164L88.8207 168Z" fill="#FFE8B6"/>
<path d="M164 209.93L163.962 125C162.793 124.989 161.646 125.316 160.666 125.941C159.686 126.565 158.916 127.458 158.454 128.509L140 169.428L163.958 210L164 209.93Z" fill="#FFE8B6"/>
<path d="M140.134 169.826L94.8384 165.039C93.6817 164.907 92.5106 165.11 91.4719 165.622C90.4333 166.134 89.5733 166.932 89 167.918L164 210L140.134 169.826Z" fill="#F79F3E"/>
<path d="M163.921 209L140 249.574L158.425 290.495C158.892 291.556 159.672 292.457 160.666 293.081C161.659 293.705 162.82 294.025 164 293.998L163.963 209.07L163.921 209Z" fill="#F79F3E"/>
<path d="M90 250.503C90.5683 251.498 91.4206 252.304 92.4502 252.821C93.4797 253.339 94.6405 253.543 95.787 253.409L140.686 248.575L164.343 208L90 250.503ZM164.421 293C165.561 292.996 166.676 292.663 167.628 292.04C168.58 291.418 169.327 290.534 169.779 289.496L188 248.575L164.384 208.071L164.402 250.535L164.421 293Z" fill="#FFE8B6"/>
<path d="M164.037 210.431L187.545 251.105L232.239 255.96C233.381 256.094 234.536 255.889 235.561 255.37C236.586 254.85 237.434 254.04 238 253.041L164.037 210.384L164.037 210.431ZM187.545 169.616L169.407 128.524C168.953 127.47 168.198 126.574 167.236 125.947C166.274 125.32 165.148 124.991 164 125L164.037 210.29L187.545 169.616Z" fill="#F79F3E"/>
<path d="M164 210L238 167.919C237.434 166.933 236.585 166.134 235.56 165.622C234.535 165.11 233.378 164.907 232.236 165.04L187.52 169.829L164 209.954V210Z" fill="#FFE8B6"/>
<path d="M164 209.977V210H211.202L237.839 174.34C238.528 173.435 238.929 172.35 238.991 171.222C239.054 170.094 238.775 168.973 238.189 168L164 209.977Z" fill="#F79F3E"/>
<path d="M164 210.024L238.19 253C238.775 252.004 239.054 250.856 238.991 249.701C238.929 248.546 238.528 247.436 237.839 246.509L211.202 210H164L164 210.024Z" fill="#FFE8B6"/>
<path d="M0 305L77 261.304L50.6443 237L0 305Z" fill="#FFE8B6"/>
<path d="M85 295.826L76.7872 261L0 305L85 295.826Z" fill="#EFA459"/>
<path d="M160.774 398.753L161.733 310.223L127.471 320.78L160.774 398.753Z" fill="#FFDF9A"/>
<path d="M195.595 320.672L161.363 310.255L160.774 398.753L195.595 320.672Z" fill="#FBA753"/>
<path d="M274.814 178L318 120L251 158.031L274.814 178Z" fill="#E5893C"/>
<path d="M250.708 158L318 120L245 127.764L250.708 158Z" fill="#EFA459"/>
<path d="M52.1075 182L78 158.603L3 116L52.1075 182Z" fill="#FFE8B6"/>
<path d="M3 116L77.4114 159L85 124.925L3 116Z" fill="#EFA459"/>
<path d="M276.273 237L252 258.227L321 298L276.273 237Z" fill="#CC7629"/>
<path d="M321 298L251.337 258L245 289.78L321 298Z" fill="#E5893C"/>
<path d="M167.753 2.29942L181.246 29.2404L211.416 33.5607C212.189 33.6714 212.915 33.993 213.512 34.4891C214.109 34.9852 214.554 35.636 214.795 36.368C215.036 37.1 215.065 37.884 214.878 38.6312C214.691 39.3785 214.295 40.0592 213.736 40.5965L191.904 61.5668L197.058 91.1779C197.19 91.9365 197.104 92.7163 196.81 93.4293C196.516 94.1422 196.025 94.7598 195.393 95.2122C194.761 95.6646 194.013 95.9338 193.234 95.9893C192.455 96.0447 191.676 95.8843 190.985 95.5262L164 81.5458L137.015 95.5262C136.324 95.8843 135.544 96.0447 134.765 95.9892C133.986 95.9337 133.239 95.6645 132.607 95.2121C131.975 94.7597 131.484 94.1422 131.19 93.4292C130.896 92.7163 130.81 91.9365 130.942 91.1779L136.096 61.5668L114.264 40.5962C113.705 40.059 113.309 39.3782 113.122 38.631C112.935 37.8837 112.964 37.0998 113.205 36.3678C113.446 35.6358 113.891 34.9849 114.488 34.4888C115.085 33.9927 115.811 33.6711 116.584 33.5605L146.754 29.2402L160.246 2.29942C160.592 1.60921 161.127 1.02806 161.79 0.621708C162.453 0.215354 163.219 0 164 0C164.781 0 165.546 0.215354 166.21 0.621708C166.873 1.02806 167.408 1.60921 167.753 2.29942V2.29942Z" fill="#FFCD52"/>
<path d="M181 29.2368L167.7 2.2992C167.364 1.60551 166.838 1.02131 166.183 0.614378C165.528 0.207443 164.771 -0.00554961 164 0.000109921V51L181 29.2368Z" fill="#F79F3E"/>
<path d="M191.901 61.318L213.73 40.2007C214.287 39.6701 214.683 38.9953 214.873 38.2529C215.063 37.5104 215.04 36.73 214.806 36L164 50.6836L191.901 61.318ZM195.402 95.1888L164 50.6836V81.4365L190.983 95.5146C191.675 95.882 192.457 96.0464 193.24 95.9887C194.023 95.931 194.772 95.6536 195.402 95.1888V95.1888Z" fill="#F79F3E"/>
<path d="M164 50.7783L135.992 61.3448L130.82 90.9726C130.682 91.7292 130.764 92.5087 131.058 93.2213C131.351 93.9339 131.843 94.5505 132.478 95L164 50.7783ZM113 36.1884L164 50.7783L146.69 29L116.408 33.3229C115.62 33.4297 114.88 33.7566 114.276 34.2646C113.672 34.7726 113.229 35.4403 113 36.1884H113Z" fill="#F79F3E"/>
<path d="M88.1124 33.6282L97.5043 52.7116L118.505 55.7717C119.043 55.8501 119.549 56.0779 119.964 56.4293C120.38 56.7807 120.689 57.2418 120.857 57.7603C121.025 58.2788 121.045 58.8341 120.915 59.3634C120.785 59.8927 120.509 60.3749 120.12 60.7555L104.923 75.6097L108.511 96.5844C108.603 97.1217 108.543 97.6741 108.338 98.1791C108.133 98.6841 107.791 99.1215 107.352 99.442C106.912 99.7624 106.391 99.9531 105.849 99.9924C105.307 100.032 104.765 99.9181 104.283 99.6644L85.4996 89.7615L66.7161 99.6644C66.2349 99.9181 65.6926 100.032 65.1504 99.9923C64.6082 99.953 64.0877 99.7623 63.6479 99.4419C63.2082 99.1214 62.8665 98.684 62.6617 98.179C62.4569 97.6741 62.397 97.1217 62.4889 96.5844L66.0761 75.6097L50.8799 60.7554C50.4906 60.3748 50.2152 59.8926 50.0849 59.3633C49.9546 58.834 49.9746 58.2787 50.1426 57.7602C50.3106 57.2416 50.6199 56.7806 51.0356 56.4292C51.4512 56.0778 51.9567 55.85 52.4947 55.7716L73.4957 52.7115L82.8875 33.6282C83.1282 33.1394 83.5003 32.7279 83.962 32.4402C84.4237 32.1525 84.9564 32 85.4999 32C86.0435 32 86.5762 32.1525 87.0379 32.4402C87.4996 32.7279 87.8717 33.1394 88.1124 33.6282Z" fill="#FFCD52"/>
<path d="M97 52.6379L87.6116 33.6229C87.3744 33.1333 87.0031 32.7209 86.5408 32.4336C86.0786 32.1464 85.5443 31.9961 85 32.0001V68L97 52.6379Z" fill="#F79F3E"/>
<path d="M104.891 75.7556L120.114 60.9936C120.503 60.6227 120.779 60.151 120.911 59.632C121.044 59.113 121.028 58.5674 120.865 58.0571L85.4324 68.3216L104.891 75.7556ZM107.332 99.4329L85.4324 68.3216V89.8193L104.25 99.6606C104.732 99.9175 105.278 100.032 105.824 99.9921C106.37 99.9518 106.893 99.7578 107.332 99.4329V99.4329ZM85.4324 68.3216L65.974 75.7556L62.3805 96.5997C62.2847 97.132 62.342 97.6804 62.5459 98.1816C62.7497 98.6829 63.0918 99.1166 63.5328 99.4329L85.4324 68.3216ZM50.0004 58.0572L85.4324 68.3216L73.4066 53L52.3679 56.041C51.8206 56.1162 51.3065 56.3461 50.8867 56.7035C50.467 57.0609 50.1592 57.5307 50 58.057L50.0004 58.0572Z" fill="#F79F3E"/>
<path d="M241.649 33.6282L251.173 52.7116L272.47 55.7717C273.015 55.85 273.528 56.0777 273.949 56.4291C274.371 56.7805 274.685 57.2415 274.855 57.76C275.026 58.2785 275.046 58.8339 274.914 59.3633C274.782 59.8926 274.503 60.3749 274.108 60.7555L258.696 75.6097L262.334 96.5844C262.427 97.1217 262.367 97.6741 262.159 98.1791C261.951 98.6841 261.605 99.1215 261.159 99.442C260.713 99.7624 260.185 99.9531 259.635 99.9924C259.085 100.032 258.535 99.9181 258.047 99.6644L238.999 89.7615L219.952 99.6644C219.464 99.9181 218.914 100.032 218.364 99.9924C217.814 99.9531 217.286 99.7624 216.84 99.442C216.394 99.1215 216.048 98.6841 215.84 98.1791C215.632 97.6741 215.571 97.1217 215.665 96.5844L219.303 75.6097L203.892 60.7554C203.498 60.3748 203.218 59.8926 203.086 59.3633C202.954 58.834 202.974 58.2786 203.145 57.7601C203.315 57.2416 203.629 56.7805 204.05 56.4291C204.472 56.0777 204.984 55.8499 205.53 55.7716L226.826 52.7115L236.35 33.6282C236.595 33.1394 236.972 32.7279 237.44 32.4402C237.908 32.1525 238.448 32 239 32C239.551 32 240.091 32.1525 240.559 32.4402C241.027 32.7279 241.405 33.1394 241.649 33.6282V33.6282Z" fill="#FFCD52"/>
<path d="M251 52.6379L241.612 33.6229C241.374 33.1333 241.003 32.7209 240.541 32.4337C240.079 32.1464 239.544 31.9961 239 32.0001V68L251 52.6379Z" fill="#F79F3E"/>
<path d="M258.891 75.7556L274.114 60.9936C274.503 60.6227 274.779 60.151 274.911 59.632C275.044 59.113 275.028 58.5674 274.864 58.0571L239.432 68.3216L258.891 75.7556ZM261.332 99.4329L239.432 68.3216V89.8193L258.25 99.6606C258.732 99.9175 259.278 100.032 259.824 99.9921C260.37 99.9518 260.893 99.7578 261.332 99.4329ZM239.432 68.3216L219.974 75.7556L216.38 96.5997C216.284 97.132 216.342 97.6804 216.546 98.1816C216.749 98.6829 217.092 99.1166 217.532 99.4329L239.432 68.3216ZM204 58.0572L239.432 68.3216L227.407 53L206.368 56.041C205.821 56.1162 205.307 56.3461 204.887 56.7035C204.467 57.0609 204.159 57.5307 204 58.057L204 58.0572Z" fill="#F79F3E"/>
<path d="M221.861 0.742271L226.756 9.44207L237.7 10.8371C237.98 10.8728 238.243 10.9766 238.46 11.1368C238.677 11.297 238.838 11.5071 238.926 11.7435C239.013 11.9799 239.024 12.2331 238.956 12.4744C238.888 12.7158 238.744 12.9356 238.542 13.1091L230.622 19.8809L232.491 29.4429C232.539 29.6878 232.508 29.9397 232.401 30.1699C232.294 30.4001 232.116 30.5995 231.887 30.7456C231.658 30.8917 231.387 30.9786 231.104 30.9965C230.822 31.0145 230.539 30.9627 230.288 30.847L220.5 26.3325L210.711 30.847C210.46 30.9627 210.178 31.0145 209.895 30.9965C209.613 30.9786 209.341 30.8917 209.112 30.7456C208.883 30.5995 208.705 30.4001 208.598 30.1699C208.492 29.9397 208.46 29.6878 208.508 29.4429L210.378 19.8809L202.459 13.1091C202.256 12.9356 202.112 12.7158 202.044 12.4744C201.976 12.2331 201.987 11.98 202.074 11.7436C202.162 11.5072 202.323 11.297 202.54 11.1368C202.756 10.9766 203.02 10.8728 203.3 10.837L214.244 9.44202L219.138 0.742271C219.264 0.519454 219.458 0.331858 219.698 0.200687C219.939 0.0695158 220.217 0 220.5 0C220.783 0 221.061 0.0695158 221.301 0.200687C221.542 0.331858 221.736 0.519454 221.861 0.742271V0.742271Z" fill="#FFCD52"/>
<path d="M226 9.74565L222.088 0.766374C221.989 0.53515 221.835 0.340421 221.642 0.20478C221.449 0.0691388 221.227 -0.00185473 221 3.68365e-05V17L226 9.74565Z" fill="#F79F3E"/>
<path d="M230.605 19.6516L238.538 12.7417C238.741 12.5681 238.885 12.3473 238.954 12.1043C239.023 11.8614 239.014 11.606 238.929 11.3671L220.465 16.1718L230.605 19.6516ZM231.877 30.7345L220.465 16.1718V26.2346L230.271 30.8411C230.522 30.9614 230.807 31.0152 231.091 30.9963C231.376 30.9774 231.648 30.8866 231.877 30.7345ZM220.465 16.1718L210.324 19.6516L208.452 29.4084C208.402 29.6575 208.432 29.9142 208.538 30.1488C208.644 30.3835 208.822 30.5865 209.052 30.7345L220.465 16.1718ZM202 11.3672L220.465 16.1718L214.198 9L203.234 10.4234C202.949 10.4586 202.681 10.5663 202.462 10.7336C202.243 10.9008 202.083 11.1207 202 11.3671L202 11.3672Z" fill="#F79F3E"/>
<path d="M111.324 0.742271L116.087 9.44207L126.735 10.8371C127.008 10.8728 127.264 10.9766 127.475 11.1368C127.686 11.297 127.842 11.5071 127.928 11.7435C128.013 11.9799 128.023 12.2331 127.957 12.4744C127.891 12.7158 127.751 12.9356 127.554 13.1091L119.848 19.8809L121.667 29.4429C121.714 29.6878 121.683 29.9397 121.58 30.1699C121.476 30.4001 121.302 30.5995 121.079 30.7456C120.856 30.8917 120.593 30.9786 120.318 30.9965C120.043 31.0145 119.768 30.9627 119.524 30.847L110 26.3325L100.476 30.847C100.232 30.9627 99.9568 31.0145 99.6818 30.9965C99.4069 30.9786 99.143 30.8917 98.92 30.7456C98.697 30.5995 98.5238 30.4001 98.4199 30.1699C98.3161 29.9397 98.2857 29.6878 98.3323 29.4429L100.151 19.8809L92.4462 13.1091C92.2488 12.9356 92.1091 12.7158 92.0431 12.4744C91.977 12.2331 91.9871 11.98 92.0723 11.7436C92.1575 11.5072 92.3143 11.297 92.5251 11.1368C92.7359 10.9766 92.9921 10.8728 93.2649 10.837L103.913 9.44202L108.675 0.742271C108.797 0.519454 108.986 0.331858 109.22 0.200687C109.454 0.0695158 109.724 0 110 0C110.275 0 110.546 0.0695158 110.78 0.200687C111.014 0.331858 111.202 0.519454 111.324 0.742271V0.742271Z" fill="#FFCD52"/>
<path d="M115 9.74565L111.088 0.766374C110.989 0.53515 110.835 0.340421 110.642 0.20478C110.449 0.0691388 110.227 -0.00185473 110 3.68365e-05V17L115 9.74565Z" fill="#F79F3E"/>
<path d="M119.832 19.6516L127.551 12.7417C127.748 12.5681 127.888 12.3473 127.955 12.1043C128.022 11.8614 128.014 11.606 127.931 11.3671L109.966 16.1718L119.832 19.6516ZM121.07 30.7345L109.966 16.1718V26.2346L119.507 30.8411C119.752 30.9614 120.028 31.0152 120.305 30.9963C120.582 30.9774 120.847 30.8866 121.07 30.7345ZM109.966 16.1718L100.099 19.6516L98.2772 29.4084C98.2287 29.6575 98.2578 29.9142 98.3611 30.1488C98.4645 30.3835 98.638 30.5865 98.8615 30.7345L109.966 16.1718ZM92 11.3672L109.966 16.1718L103.868 9L93.2007 10.4234C92.9232 10.4586 92.6625 10.5663 92.4497 10.7336C92.2368 10.9008 92.0808 11.1207 92.0001 11.3671L92 11.3672Z" fill="#F79F3E"/>
</svg>
